<svg xmlns="http://www.w3.org/2000/svg" width="47.284" height="17.567" viewBox="0 0 47.284 17.567">
  <g transform="translate(-46.716 -303.716)"><path d="M8.784,0a8.784,8.784,0,1,0,8.784,8.784A8.784,8.784,0,0,0,8.784,0Zm5.181,7.142L8.176,12.809a1.214,1.214,0,0,1-.85.346H7.3a1.213,1.213,0,0,1-.859-.379L3.53,9.7a1.214,1.214,0,0,1,1.763-1.67l2.065,2.18,4.906-4.8a1.215,1.215,0,0,1,1.7,1.736Z" transform="translate(61.716 303.716)" fill="black"/><path d="M5.642,0a5.642,5.642,0,1,0,5.642,5.642A5.642,5.642,0,0,0,5.642,0ZM8.969,4.587,5.251,8.227a.78.78,0,0,1-.546.223H4.691a.779.779,0,0,1-.551-.244L2.268,6.23A.78.78,0,0,1,3.4,5.157l1.327,1.4L7.878,3.472A.78.78,0,0,1,8.969,4.587Z" transform="translate(82.716 310)" fill="black"/><path d="M5.642,0a5.642,5.642,0,1,0,5.642,5.642A5.642,5.642,0,0,0,5.642,0ZM8.969,4.587,5.251,8.227a.78.78,0,0,1-.546.223H4.691a.779.779,0,0,1-.551-.244L2.268,6.23A.78.78,0,0,1,3.4,5.157l1.327,1.4L7.878,3.472A.78.78,0,0,1,8.969,4.587Z" transform="translate(46.716 310)" fill="black"/></g>
</svg>
