<svg xmlns="http://www.w3.org/2000/svg" width="25" height="25" viewBox="0 0 25 25">
  <g transform="translate(-25 -607)"><rect width="25" height="25" transform="translate(25 607)" opacity="0"/>
    <g transform="translate(25.031 607.031)"><path d="M24.237,1.8h-3.2q.018-.533.018-1.07A.731.731,0,0,0,20.32,0H4.649a.731.731,0,0,0-.732.732q0,.538.018,1.07H.732A.731.731,0,0,0,0,2.533a15.855,15.855,0,0,0,2.412,8.707,7.631,7.631,0,0,0,5.8,3.765,7.523,7.523,0,0,0,1.584,1.33v3.251H8.567a2.694,2.694,0,0,0-2.69,2.69v1.227H5.824a.732.732,0,0,0,0,1.463h13.32a.732.732,0,0,0,0-1.463h-.052V22.279a2.694,2.694,0,0,0-2.69-2.69H15.174V16.337a7.511,7.511,0,0,0,1.584-1.33,7.631,7.631,0,0,0,5.8-3.765,15.854,15.854,0,0,0,2.413-8.708A.732.732,0,0,0,24.237,1.8ZM3.63,10.431A14.1,14.1,0,0,1,1.479,3.265H4.017A24.441,24.441,0,0,0,6.29,12.139q.293.585.611,1.106A7.054,7.054,0,0,1,3.63,10.431Zm17.708,0a7.054,7.054,0,0,1-3.27,2.814q.317-.521.611-1.106a24.451,24.451,0,0,0,2.273-8.874H23.49A14.1,14.1,0,0,1,21.339,10.431Z" fill="#5CE3D9"/></g>
  </g>
</svg>
