<svg xmlns="http://www.w3.org/2000/svg" width="47.957" height="17.502" viewBox="0 0 47.957 17.502">
  <g transform="translate(-281.031 -304.031)">
    <g transform="translate(296.031 304.031)"><path d="M16.989,1.263H14.744q.012-.373.013-.75A.513.513,0,0,0,14.243,0H3.259a.513.513,0,0,0-.513.513q0,.377.013.75H.513A.513.513,0,0,0,0,1.776a11.114,11.114,0,0,0,1.691,6.1,5.349,5.349,0,0,0,4.064,2.639,5.273,5.273,0,0,0,1.11.933V13.73h-.86a1.888,1.888,0,0,0-1.886,1.886v.86H4.083a.513.513,0,0,0,0,1.026h9.337a.513.513,0,0,0,0-1.026h-.037v-.86A1.888,1.888,0,0,0,11.5,13.731h-.86V11.452a5.265,5.265,0,0,0,1.11-.933A5.349,5.349,0,0,0,15.811,7.88a11.113,11.113,0,0,0,1.691-6.1A.513.513,0,0,0,16.989,1.263ZM2.545,7.312A9.881,9.881,0,0,1,1.036,2.289h1.78a17.132,17.132,0,0,0,1.593,6.22q.205.41.428.775A4.944,4.944,0,0,1,2.545,7.312Zm12.413,0a4.944,4.944,0,0,1-2.292,1.973q.223-.365.428-.775a17.139,17.139,0,0,0,1.593-6.22h1.78A9.881,9.881,0,0,1,14.958,7.312Z" fill="black"/></g>
    <g transform="translate(317.031 309.576)"><path d="M11.607.863H10.073q.008-.255.009-.513A.35.35,0,0,0,9.731,0h-7.5a.35.35,0,0,0-.35.35q0,.258.009.513H.35a.35.35,0,0,0-.35.35,7.593,7.593,0,0,0,1.155,4.17,3.654,3.654,0,0,0,2.777,1.8,3.6,3.6,0,0,0,.759.637V9.38H4.1a1.29,1.29,0,0,0-1.288,1.288v.588H2.789a.35.35,0,0,0,0,.7H9.168a.35.35,0,0,0,0-.7H9.143v-.588A1.29,1.29,0,0,0,7.854,9.381H7.267V7.824a3.6,3.6,0,0,0,.759-.637,3.654,3.654,0,0,0,2.777-1.8,7.592,7.592,0,0,0,1.155-4.17A.35.35,0,0,0,11.607.863ZM1.738,5A6.75,6.75,0,0,1,.708,1.564H1.924a11.7,11.7,0,0,0,1.088,4.25q.14.28.292.53A3.378,3.378,0,0,1,1.738,5Zm8.48,0A3.378,3.378,0,0,1,8.653,6.343q.152-.249.292-.53a11.709,11.709,0,0,0,1.088-4.25h1.216A6.75,6.75,0,0,1,10.219,5Z" fill="black"/></g>
    <g transform="translate(281.031 309.576)"><path d="M11.607.863H10.073q.008-.255.009-.513A.35.35,0,0,0,9.731,0h-7.5a.35.35,0,0,0-.35.35q0,.258.009.513H.35a.35.35,0,0,0-.35.35,7.593,7.593,0,0,0,1.155,4.17,3.654,3.654,0,0,0,2.777,1.8,3.6,3.6,0,0,0,.759.637V9.38H4.1a1.29,1.29,0,0,0-1.288,1.288v.588H2.789a.35.35,0,0,0,0,.7H9.168a.35.35,0,0,0,0-.7H9.143v-.588A1.29,1.29,0,0,0,7.854,9.381H7.267V7.824a3.6,3.6,0,0,0,.759-.637,3.654,3.654,0,0,0,2.777-1.8,7.592,7.592,0,0,0,1.155-4.17A.35.35,0,0,0,11.607.863ZM1.738,5A6.75,6.75,0,0,1,.708,1.564H1.924a11.7,11.7,0,0,0,1.088,4.25q.14.28.292.53A3.378,3.378,0,0,1,1.738,5Zm8.48,0A3.378,3.378,0,0,1,8.653,6.343q.152-.249.292-.53a11.709,11.709,0,0,0,1.088-4.25h1.216A6.75,6.75,0,0,1,10.219,5Z" fill="black"/></g>
  </g>
</svg>
