<svg xmlns="http://www.w3.org/2000/svg" width="60" height="60" viewBox="0 0 60 60"><g id="Group_2767" data-name="Group 2767" transform="translate(-158 -201)"><circle id="Ellipse_29" cx="30" cy="30" r="30" fill="#5ce3d9" data-name="Ellipse 29" transform="translate(158 201)"/><g id="_003-appointment" data-name="003-appointment" transform="translate(171.594 215.094)"><g id="Group_2731" data-name="Group 2731"><g id="Group_2730" data-name="Group 2730"><path id="Path_144" fill="#3d7782" d="M28.706,2.734H25.744v-.87a1.864,1.864,0,0,0-3.728,0v.87H11.578v-.87a1.864,1.864,0,0,0-3.728,0v.893a.62.62,0,0,0-.166-.023H5.208A3.11,3.11,0,0,0,2.1,5.841V16.424a.621.621,0,0,0,1.243,0V9.134h22.4a.621.621,0,0,0,0-1.243H3.344V5.841A1.866,1.866,0,0,1,5.208,3.977H7.684a.623.623,0,0,0,.166-.023v.8a1.864,1.864,0,0,0,3.728,0V3.977H22.016v.777a1.864,1.864,0,0,0,3.728,0V3.977h2.962A1.866,1.866,0,0,1,30.57,5.841v23.61a1.119,1.119,0,0,1-2.238,0V27.844a.621.621,0,0,0-.621-.621H20.483a.621.621,0,0,0,0,1.243H27.09v.986a2.347,2.347,0,0,0,.282,1.119H2.361a1.12,1.12,0,0,1-1.118-1.118v-.986H15.15a.621.621,0,0,0,0-1.243H8.942a5.095,5.095,0,1,0-6.64,0H.621A.621.621,0,0,0,0,27.844v1.608a2.364,2.364,0,0,0,2.361,2.361h27.09a2.364,2.364,0,0,0,2.361-2.361V5.841A3.11,3.11,0,0,0,28.706,2.734ZM10.335,4.753a.621.621,0,0,1-1.243,0V1.864a.621.621,0,0,1,1.243,0Zm14.167,0a.621.621,0,0,1-1.243,0V1.864a.621.621,0,0,1,1.243,0ZM1.77,23.362a3.852,3.852,0,1,1,3.852,3.852A3.857,3.857,0,0,1,1.77,23.362Z" data-name="Path 144"/></g></g><g id="Group_2733" data-name="Group 2733" transform="translate(28.037 7.891)"><g id="Group_2732" data-name="Group 2732"><path id="Path_145" fill="#3d7782" d="M452.3,127.182a.621.621,0,1,0,.182.439A.626.626,0,0,0,452.3,127.182Z" data-name="Path 145" transform="translate(-451.24 -127)"/></g></g><g id="Group_2735" data-name="Group 2735" transform="translate(17.496 27.223)"><g id="Group_2734" data-name="Group 2734"><path id="Path_146" fill="#3d7782" d="M282.641,438.311a.622.622,0,1,0,.182.439A.625.625,0,0,0,282.641,438.311Z" data-name="Path 146" transform="translate(-281.58 -438.13)"/></g></g><g id="Group_2737" data-name="Group 2737" transform="translate(11.696 18.889)"><g id="Group_2736" data-name="Group 2736"><path id="Path_147" fill="#3d7782" d="M190.606,304a2.361,2.361,0,1,0,2.361,2.361A2.364,2.364,0,0,0,190.606,304Zm0,3.479a1.118,1.118,0,1,1,1.118-1.118A1.12,1.12,0,0,1,190.606,307.479Z" data-name="Path 147" transform="translate(-188.245 -304)"/></g></g><g id="Group_2739" data-name="Group 2739" transform="translate(17.496 18.889)"><g id="Group_2738" data-name="Group 2738"><path id="Path_148" fill="#3d7782" d="M283.939,304a2.361,2.361,0,1,0,2.361,2.361A2.364,2.364,0,0,0,283.939,304Zm0,3.479a1.118,1.118,0,1,1,1.118-1.118A1.12,1.12,0,0,1,283.939,307.479Z" data-name="Path 148" transform="translate(-281.578 -304)"/></g></g><g id="Group_2741" data-name="Group 2741" transform="translate(23.295 18.889)"><g id="Group_2740" data-name="Group 2740"><path id="Path_149" fill="#3d7782" d="M377.273,304a2.361,2.361,0,1,0,2.361,2.361A2.364,2.364,0,0,0,377.273,304Zm0,3.479a1.118,1.118,0,1,1,1.118-1.118A1.12,1.12,0,0,1,377.273,307.479Z" data-name="Path 149" transform="translate(-374.912 -304)"/></g></g><g id="Group_2743" data-name="Group 2743" transform="translate(5.897 12.427)"><g id="Group_2742" data-name="Group 2742"><path id="Path_150" fill="#3d7782" d="M97.273,200a2.361,2.361,0,1,0,2.361,2.361A2.364,2.364,0,0,0,97.273,200Zm0,3.479a1.118,1.118,0,1,1,1.118-1.118A1.12,1.12,0,0,1,97.273,203.479Z" data-name="Path 150" transform="translate(-94.912 -200)"/></g></g><g id="Group_2745" data-name="Group 2745" transform="translate(17.496 12.427)"><g id="Group_2744" data-name="Group 2744"><path id="Path_151" fill="#3d7782" d="M283.939,200a2.361,2.361,0,1,0,2.361,2.361A2.364,2.364,0,0,0,283.939,200Zm0,3.479a1.118,1.118,0,1,1,1.118-1.118A1.12,1.12,0,0,1,283.939,203.479Z" data-name="Path 151" transform="translate(-281.578 -200)"/></g></g><g id="Group_2747" data-name="Group 2747" transform="translate(23.295 12.427)"><g id="Group_2746" data-name="Group 2746"><path id="Path_152" fill="#3d7782" d="M377.273,200a2.361,2.361,0,1,0,2.361,2.361A2.364,2.364,0,0,0,377.273,200Zm0,3.479a1.118,1.118,0,1,1,1.118-1.118A1.12,1.12,0,0,1,377.273,203.479Z" data-name="Path 152" transform="translate(-374.912 -200)"/></g></g><g id="Group_2749" data-name="Group 2749" transform="translate(11.696 12.427)"><g id="Group_2748" data-name="Group 2748"><path id="Path_153" fill="#3d7782" d="M190.606,200a2.361,2.361,0,1,0,2.361,2.361A2.364,2.364,0,0,0,190.606,200Zm0,3.479a1.118,1.118,0,1,1,1.118-1.118A1.12,1.12,0,0,1,190.606,203.479Z" data-name="Path 153" transform="translate(-188.245 -200)"/></g></g><g id="Group_2751" data-name="Group 2751" transform="translate(3.181 21.666)"><g id="Group_2750" data-name="Group 2750"><path id="Path_154" fill="#3d7782" d="M55.849,348.882a.621.621,0,0,0-.879,0l-2.023,2.023-.691-.691a.621.621,0,1,0-.879.879l1.131,1.131a.621.621,0,0,0,.879,0l2.463-2.463A.621.621,0,0,0,55.849,348.882Z" data-name="Path 154" transform="translate(-51.194 -348.7)"/></g></g></g></g></svg>