<svg id="camera" xmlns="http://www.w3.org/2000/svg" width="43.234" height="36.028" viewBox="0 0 43.234 36.028">
  <g id="Group_2751" data-name="Group 2751">
    <g id="Group_2750" data-name="Group 2750">
      <circle id="Ellipse_69" data-name="Ellipse 69" cx="9.007" cy="9.007" r="9.007" transform="translate(12.61 10.808)" fill="#fff"/>
      <path id="Path_1108" data-name="Path 1108" d="M39.63,5.4H33.917a2.687,2.687,0,0,1-1.912-.792L28.712,1.319A4.472,4.472,0,0,0,25.528,0H17.7A4.476,4.476,0,0,0,14.52,1.319L11.226,4.612A2.688,2.688,0,0,1,9.315,5.4H3.6A3.607,3.607,0,0,0,0,9.007V32.425a3.607,3.607,0,0,0,3.6,3.6H39.631a3.607,3.607,0,0,0,3.6-3.6V9.007A3.608,3.608,0,0,0,39.63,5.4ZM21.617,30.624A10.808,10.808,0,1,1,32.425,19.816,10.821,10.821,0,0,1,21.617,30.624ZM36.028,14.411a1.8,1.8,0,1,1,1.8-1.8A1.8,1.8,0,0,1,36.028,14.411Z" fill="#fff"/>
    </g>
  </g>
</svg>
