<svg xmlns="http://www.w3.org/2000/svg" width="21.471" height="21.471" viewBox="0 0 21.471 21.471">
  <g transform="translate(-25 -607)"><rect width="21" height="21" transform="translate(25.235 607.235)" opacity="0"/><path d="M10.735,0A10.735,10.735,0,1,0,21.471,10.735,10.736,10.736,0,0,0,10.735,0Zm6.332,8.729L9.993,15.655a1.484,1.484,0,0,1-1.038.423H8.926a1.483,1.483,0,0,1-1.049-.463l-3.562-3.76A1.484,1.484,0,0,1,6.469,9.813l2.524,2.664,6-5.87a1.485,1.485,0,0,1,2.077,2.121Z" transform="translate(25 607)" fill="#5CE3D9"/></g>
</svg>
