<svg id="Group_2633" data-name="Group 2633" xmlns="http://www.w3.org/2000/svg" width="33.188" height="26.542" viewBox="0 0 33.188 26.542">
  <path id="Path_769" data-name="Path 769" d="M31.368,10.766h-.754V7.41a2.682,2.682,0,0,0-2.682-2.682H27.01V2.075A2.076,2.076,0,0,0,24.935,0H2.075A2.076,2.076,0,0,0,0,2.075V23.859a2.682,2.682,0,0,0,2.682,2.682h25.25a2.682,2.682,0,0,0,2.682-2.682V20.5h.754a1.821,1.821,0,0,0,1.821-1.821v-6.1A1.821,1.821,0,0,0,31.368,10.766ZM2.808,2.808H24.2v1.92H2.808ZM30.38,18.069H24.473a2.144,2.144,0,0,1-2.144-2.144v-.58A2.144,2.144,0,0,1,24.473,13.2H30.38Z" fill="#707070"/>
  <circle id="Ellipse_10" data-name="Ellipse 10" cx="1.311" cy="1.311" r="1.311" transform="translate(23.732 14.323)" fill="#707070"/>
</svg>
