<svg xmlns="http://www.w3.org/2000/svg" id="Group_2633" width="33.188" height="26.542" data-name="Group 2633" viewBox="0 0 33.188 26.542"><path id="Path_769" fill="#707070" d="M31.368,10.766h-.754V7.41a2.682,2.682,0,0,0-2.682-2.682H27.01V2.075A2.076,2.076,0,0,0,24.935,0H2.075A2.076,2.076,0,0,0,0,2.075V23.859a2.682,2.682,0,0,0,2.682,2.682h25.25a2.682,2.682,0,0,0,2.682-2.682V20.5h.754a1.821,1.821,0,0,0,1.821-1.821v-6.1A1.821,1.821,0,0,0,31.368,10.766ZM2.808,2.808H24.2v1.92H2.808ZM30.38,18.069H24.473a2.144,2.144,0,0,1-2.144-2.144v-.58A2.144,2.144,0,0,1,24.473,13.2H30.38Z" data-name="Path 769"/><circle id="Ellipse_10" cx="1.311" cy="1.311" r="1.311" fill="#707070" data-name="Ellipse 10" transform="translate(23.732 14.323)"/></svg>