<svg xmlns="http://www.w3.org/2000/svg" width="47.102" height="10.076" viewBox="0 0 47.102 10.076">
  <g transform="translate(0 10.076) rotate(-90)"><path d="M46.977,47.1V0H42V47.1Z" transform="translate(-36.901)" fill="black"/><path d="M3.642,0H0V4.613H2.064a.728.728,0,1,1,0,1.457H0V8.983H1.335a.728.728,0,0,1,0,1.457H0v2.792H2.064a.728.728,0,1,1,0,1.457H0V17.6H1.335a.728.728,0,1,1,0,1.457H0v2.792H2.064a.728.728,0,0,1,0,1.457H0v2.671H1.335a.728.728,0,1,1,0,1.457H0v2.913H2.064a.728.728,0,0,1,0,1.457H0V34.6H1.335a.728.728,0,0,1,0,1.457H0v2.792H2.064a.728.728,0,0,1,0,1.457H0V43.1H1.335a.728.728,0,1,1,0,1.457H0V47.1H3.642Z" fill="black"/></g>
</svg>
