<svg xmlns="http://www.w3.org/2000/svg" width="69.425" height="69.425" viewBox="0 0 69.425 69.425"><g transform="translate(41.911 41.907)"><g transform="translate(-41.911 -41.907)"><circle cx="24.546" cy="24.546" r="24.546" transform="translate(0 34.712) rotate(-45)" fill="#004da2"/></g><g transform="translate(-20.31 -20.125)"><rect width="23.003" height="2.814" transform="translate(1.417 11.889)" fill="#d47205"/><path d="M60.242,47.88A13.112,13.112,0,1,0,73.354,60.992,13.112,13.112,0,0,0,60.242,47.88Zm0,24.1A10.987,10.987,0,1,1,71.229,60.992,11,11,0,0,1,60.242,71.979Z" transform="translate(-47.13 -47.88)" fill="#fdb400"/><path d="M63.036,50.87A12.47,12.47,0,1,0,75.353,63.339,12.409,12.409,0,0,0,63.036,50.87Zm0,24.432A11.963,11.963,0,1,1,74.846,63.339,11.9,11.9,0,0,1,63.036,75.3Z" transform="translate(-49.849 -50.145)" fill="#fddf03"/><path d="M85.6,82.77l-8-4.274-8,4.274V47.88h16Z" transform="translate(-64.149 -47.88)" fill="#fd2e2a"/><g transform="translate(5.451)"><path d="M70.84,47.88H69.6V82.77l1.24-.662Z" transform="translate(-69.6 -47.88)" fill="#e1211d"/><path d="M130.72,47.88V82.146l1.169.623V47.88Z" transform="translate(-115.893 -47.88)" fill="#e1211d"/><path d="M92.952,47.88h-9.2V80.936l4.566-2.44,4.636,2.479Z" transform="translate(-80.317 -47.88)" fill="#e1211d"/></g><path d="M69.6,75.57a10.92,10.92,0,0,0,15.994-.723V60.692A10.92,10.92,0,0,0,69.6,59.969Z" transform="translate(-64.149 -54.659)" fill="#be0d30" opacity="0.68"/><path d="M70.187,80.854a9.927,9.927,0,1,1,9.927-9.927A9.939,9.939,0,0,1,70.187,80.854Z" transform="translate(-57.075 -57.817)" fill="#fdb400"/><circle cx="8.333" cy="8.333" r="8.333" transform="translate(4.779 4.777)" fill="#fdcd13"/><path d="M67.5,75.9a8.34,8.34,0,0,1,8-8.326,8.334,8.334,0,1,0,0,16.654A8.344,8.344,0,0,1,67.5,75.9Z" transform="translate(-62.051 -62.795)" fill="#d47205" opacity="0.71"/><path d="M87.191,91.1V84.538l-1.5,1.019L84.2,83.369l3.566-2.339h2.387V91.1Z" transform="translate(-75.207 -72.988)" fill="#fdb400"/><path d="M89.343,82.42h1.95v9.4H89.005V84.953l-1.744,1.191L86.15,84.518Z" transform="translate(-76.684 -74.041)" fill="#fff175"/><g transform="translate(11.552 8.379)"><path d="M102.465,83.745,101.14,82.42h-.24l1.565,1.562Z" transform="translate(-99.408 -82.42)" fill="#fdf6c3"/><path d="M97.807,86.865,95.182,84.24l-.432.284,3.057,3.057Z" transform="translate(-94.75 -83.798)" fill="#fdf6c3"/><path d="M100.208,99.368,97.92,97.08v.478l2.288,2.288Z" transform="translate(-97.151 -93.524)" fill="#fdf6c3"/><path d="M100.208,104.418,97.92,102.13v.478l2.288,2.288Z" transform="translate(-97.151 -97.348)" fill="#fdf6c3"/></g><g transform="translate(5.9 4.01)"><path d="M71.488,67.628a9.41,9.41,0,0,1,4.905-3.21.167.167,0,0,1,.085.323,9.065,9.065,0,0,0-4.731,3.1A.167.167,0,0,1,71.488,67.628Z" transform="translate(-71.449 -64.411)" fill="#fdf6c3"/></g><g transform="translate(3.904 9.344)"><path d="M63.227,90.375a9.308,9.308,0,0,1,.716-3.877.167.167,0,0,1,.308.129c-1.116,2.669-.391,3.9-.852,3.911A.168.168,0,0,1,63.227,90.375Z" transform="translate(-63.223 -86.396)" fill="#fdf6c3"/></g><g transform="translate(4.255 15.41)"><path d="M68.977,117.125a9.307,9.307,0,0,1-4.3-5.509.167.167,0,0,1,.32-.092,8.968,8.968,0,0,0,4.146,5.313A.166.166,0,1,1,68.977,117.125Z" transform="translate(-64.669 -111.403)" fill="#fdf6c3"/></g><g transform="translate(16.253 19.973)"><path d="M114.139,131.954c-.141-.383.849-.192,2.688-1.7a.166.166,0,0,1,.211.257,9.291,9.291,0,0,1-2.686,1.54A.163.163,0,0,1,114.139,131.954Z" transform="translate(-114.126 -130.213)" fill="#fddf03"/></g><g transform="translate(14.781 3.863)"><path d="M114.736,77.088c-.425-.2.8-1.08.8-4.1a9,9,0,0,0-7.336-8.852.167.167,0,0,1,.061-.327,9.357,9.357,0,0,1,6.7,13.2A.166.166,0,0,1,114.736,77.088Z" transform="translate(-108.06 -63.805)" fill="#fddf03"/></g></g></g></svg>