<svg xmlns="http://www.w3.org/2000/svg" width="49.635" height="54.198" viewBox="0 0 49.635 54.198"><g transform="translate(0 -2.307)"><g transform="translate(0 6.871)"><circle cx="24.817" cy="24.817" r="24.817" transform="translate(0 0)" fill="#ffc700"/></g><g transform="translate(9.958 11.491)"><g transform="translate(0 7.645)"><g transform="translate(0.688 0.691)"><circle cx="14.171" cy="14.171" r="14.171" fill="#fff9c8"/></g><path d="M57.689,91.2A14.86,14.86,0,1,1,68.2,86.846,14.763,14.763,0,0,1,57.689,91.2Zm0-28.342a13.487,13.487,0,1,0,9.535,3.95A13.39,13.39,0,0,0,57.689,62.856Z" transform="translate(-42.83 -61.48)" fill="#875b33"/></g><g transform="translate(8.428 13.162)"><path d="M79.08,85.21l5.227,9.86,2.437-1.59Z" transform="translate(-79.08 -85.21)" fill="#ff170f"/></g><g transform="translate(13.655 21.125)"><path d="M109.635,128.714l-5.894-9.254-2.181,1.751Z" transform="translate(-101.56 -119.46)"/></g><g transform="translate(13.015 20.218)"><circle cx="1.844" cy="1.844" r="1.844" fill="#ffb641"/></g><g transform="translate(13.757 20.96)"><circle cx="1.102" cy="1.102" r="1.102" fill="#fff"/></g><g transform="translate(13.236 5.203)"><g transform="translate(0.686 0.684)"><path d="M103.921,56.18h-.551a.663.663,0,0,1-.66-.66V54.58a.663.663,0,0,1,.66-.66h.551a.663.663,0,0,1,.66.66v.939A.661.661,0,0,1,103.921,56.18Z" transform="translate(-102.71 -53.92)" fill="#352719"/></g><path d="M101.657,54.612h-.551a1.348,1.348,0,0,1-1.346-1.346v-.939a1.348,1.348,0,0,1,1.346-1.346h.551A1.348,1.348,0,0,1,103,52.326v.939A1.348,1.348,0,0,1,101.657,54.612Zm-.523-1.374h.5v-.884h-.5Z" transform="translate(-99.76 -50.98)" fill="#352719"/></g><g transform="translate(11.067)"><g transform="translate(0.686 0.686)"><circle cx="3.106" cy="3.106" r="3.106" fill="#fff3b3"/></g><path d="M94.222,36.184a3.792,3.792,0,1,1,3.792-3.792A3.8,3.8,0,0,1,94.222,36.184Zm0-6.212A2.418,2.418,0,1,0,96.64,32.39,2.421,2.421,0,0,0,94.222,29.972Z" transform="translate(-90.43 -28.6)" fill="#7f5a3b"/></g></g><g transform="translate(33.634 6.307)"><text transform="translate(0 10)" fill="#875b33" font-size="13" font-family="SegoeUI, Segoe UI"><tspan x="0" y="0">10</tspan></text></g></g></svg>