<svg xmlns="http://www.w3.org/2000/svg" width="69.458" height="69.458" viewBox="0 0 69.458 69.458"><g transform="translate(41.907 35.178)"><g transform="translate(-41.907 -35.178)"><g transform="translate(0 0)"><circle cx="24.557" cy="24.557" r="24.557" transform="translate(0 34.729) rotate(-45)" fill="#e4361b"/></g></g><g transform="translate(-27.317 -10.612)"><g transform="translate(0 0.881)"><g transform="translate(15.896 3.267)"><path d="M105.637,88.035l-1.027-2.8a3.231,3.231,0,0,0-4.133-1.915l-6.883,2.524-2.345-2.257a1.053,1.053,0,0,0-1.485.029l-1.027,1.065a1.053,1.053,0,0,0,.029,1.485l1.09,1.048L85.814,88.7A3.231,3.231,0,0,0,83.9,92.831l1.027,2.8c.609,1.663,8.393,2.262,14.036-1.716l4.76-1.745A3.231,3.231,0,0,0,105.637,88.035Z" transform="translate(-83.704 -83.124)" fill="#ffbf95"/></g><g transform="translate(14.859 6.421)"><path d="M89.4,99.384H80.818A1.391,1.391,0,0,1,79.43,98v-.488a1.391,1.391,0,0,1,1.388-1.388H89.4a1.391,1.391,0,0,1,1.388,1.388V98A1.391,1.391,0,0,1,89.4,99.384Z" transform="translate(-79.43 -96.12)" fill="#d49272"/></g><g transform="translate(15.473 9.423)"><path d="M90.792,111.366H83.348a1.391,1.391,0,0,1-1.388-1.388v-.1a1.391,1.391,0,0,1,1.388-1.388h7.444a1.391,1.391,0,0,1,1.388,1.388v.1A1.393,1.393,0,0,1,90.792,111.366Z" transform="translate(-81.96 -108.49)" fill="#d49272"/></g><g transform="translate(15.58 12.071)"><path d="M90.82,122.691H83.788A1.391,1.391,0,0,1,82.4,121.3v-.515a1.391,1.391,0,0,1,1.388-1.388H90.82a1.391,1.391,0,0,1,1.388,1.388v.515A1.391,1.391,0,0,1,90.82,122.691Z" transform="translate(-82.4 -119.4)" fill="#d49272"/></g><g transform="translate(5.344 4.047)"><path d="M59.829,88.683h-5.5a1.194,1.194,0,0,0-.121-1.359l-.478-.566a1.194,1.194,0,0,0-1.677-.141l-2.74,2.313a1.233,1.233,0,0,0-.209.228l-5.844.124a3.1,3.1,0,0,0-3.027,3.16l.07,3.235a3.1,3.1,0,0,0,3.16,3.027l10.349-.223a3.074,3.074,0,0,0,2.07-.862H59a.947.947,0,0,0,.944-.944v-1.4a.94.94,0,0,0-.379-.755.947.947,0,0,0,.682-.908v-.985a.942.942,0,0,0-.3-.689A.95.95,0,0,0,60.771,91V89.624A.943.943,0,0,0,59.829,88.683Z" transform="translate(-40.227 -86.338)" fill="#ffb37e"/></g><g transform="translate(14.89 13.068)"><path d="M79.558,127.44l.087-2.59a1.4,1.4,0,0,1,1.434-1.342l.1,0a1.4,1.4,0,0,1,1.342,1.434l-.087,2.59A1.4,1.4,0,0,1,81,128.877l-.1,0A1.4,1.4,0,0,1,79.558,127.44Z" transform="translate(-79.557 -123.507)" fill="#d99b80"/></g><g transform="translate(17.666 13.085)"><path d="M91,127.852l.1-2.932a1.4,1.4,0,0,1,1.434-1.342l.1,0a1.4,1.4,0,0,1,1.342,1.434l-.1,2.932a1.4,1.4,0,0,1-1.434,1.342l-.1,0A1.392,1.392,0,0,1,91,127.852Z" transform="translate(-90.997 -123.577)" fill="#d99b80"/></g><g transform="translate(20.419 12.5)"><path d="M102.337,125.449l.1-2.939a1.4,1.4,0,0,1,1.434-1.342l.233.007a1.4,1.4,0,0,1,1.342,1.434l-.1,2.939a1.4,1.4,0,0,1-1.434,1.342l-.233-.007A1.39,1.39,0,0,1,102.337,125.449Z" transform="translate(-102.336 -121.167)" fill="#d99b80"/></g><g transform="translate(14.846 12.937)"><path d="M87.279,123.012l-1.269-.044a.947.947,0,0,0-.976.913l0,.177a.947.947,0,0,0-.784-.471l-.985-.034a.948.948,0,0,0-.934.67.944.944,0,0,0-.869-.655l-.985-.034a.947.947,0,0,0-.976.913l-.117,3.476a.947.947,0,0,0,.913.976l.985.034a.954.954,0,0,0,.883-.534.947.947,0,0,0,.91.862l.985.034a.947.947,0,0,0,.976-.913l0-.17a.947.947,0,0,0,.784.471l1.269.044a.947.947,0,0,0,.976-.913l.129-3.825A.949.949,0,0,0,87.279,123.012Z" transform="translate(-79.378 -122.968)" fill="#ffc59a"/></g><g transform="translate(2.928 5.211)"><rect width="10.774" height="8.585" transform="matrix(0.115, -0.993, 0.993, 0.115, 0, 10.702)" fill="#4b869f"/></g><g transform="translate(0 4.238)"><rect width="11.854" height="10.313" transform="matrix(0.115, -0.993, 0.993, 0.115, 0, 11.775)" fill="#2d2a25"/></g><g transform="translate(26.346 1.906)"><rect width="11.39" height="9.075" transform="translate(3.991 13.848) rotate(-110.512)" fill="#bee9ff"/></g><g transform="translate(27.265)"><rect width="12.531" height="11.461" transform="translate(4.391 15.753) rotate(-110.512)" fill="#2d2a25"/></g></g><g transform="translate(26.245)"><path d="M129.238,67.821a1.094,1.094,0,0,1-.709-.362,2.3,2.3,0,0,1-.468-.818c-.066-.18-.121-.364-.175-.546a.077.077,0,0,0-.15,0,5.623,5.623,0,0,1-.308.762,1.88,1.88,0,0,1-.379.556l-.022.019a1,1,0,0,1-.612.17c-.085,0-.107.148-.019.165a1.786,1.786,0,0,1,1.335,1.767.078.078,0,0,0,.153.022,2.38,2.38,0,0,1,.939-1.461.85.85,0,0,1,.417-.1C129.34,67.991,129.337,67.826,129.238,67.821Z" transform="translate(-126.34 -66.036)" fill="#fffcf9"/></g><g transform="translate(11.988 19.703)"><path d="M70.5,149a1.094,1.094,0,0,1-.709-.362,2.3,2.3,0,0,1-.468-.818c-.066-.18-.121-.364-.175-.546a.077.077,0,0,0-.15,0,5.624,5.624,0,0,1-.308.762,1.88,1.88,0,0,1-.379.556l-.022.019a1,1,0,0,1-.612.17c-.085,0-.107.148-.019.165a1.786,1.786,0,0,1,1.335,1.767.078.078,0,0,0,.153.022,2.38,2.38,0,0,1,.939-1.461.85.85,0,0,1,.417-.1C70.6,149.171,70.6,149.006,70.5,149Z" transform="translate(-67.6 -147.216)" fill="#fffcf9"/></g></g><text transform="translate(0.739 -14.109)" fill="#ffb90a" font-size="15" font-family="SegoeUI, Segoe UI"><tspan x="0" y="0">10</tspan></text></g></svg>