<svg xmlns="http://www.w3.org/2000/svg" width="49.242" height="54.234" viewBox="0 0 49.242 54.234"><g transform="translate(0 -2.308)"><g transform="translate(0 7.3)"><circle cx="24.621" cy="24.621" r="24.621" transform="translate(0 0)" fill="#004660"/></g><g transform="translate(10.311 17.613)"><g transform="translate(0.78 0.777)"><circle cx="13.531" cy="13.531" r="13.531" fill="#fff"/></g><path d="M59.01,83.941a14.309,14.309,0,1,1,10.119-4.191A14.216,14.216,0,0,1,59.01,83.941Zm0-27.061A12.749,12.749,0,1,0,71.759,69.628,12.762,12.762,0,0,0,59.01,56.879Z" transform="translate(-44.7 -55.32)" fill="#3b3b3b"/><g transform="translate(13.994 8.034)"><rect width="0.6" height="6.491" fill="#555"/></g><g transform="translate(12.991 6.671)"><path d="M102.323,84.24l-1.3,2.166h2.636Z" transform="translate(-101.02 -84.24)" fill="#555"/></g><g transform="translate(14.482 15.423)"><rect width="0.537" height="7.956" transform="matrix(-0.77, 0.638, -0.638, -0.77, 5.492, 6.123)" fill="#555"/></g><g transform="translate(12.892 13.475)"><circle cx="1.419" cy="1.419" r="1.419" fill="#555a5b"/></g><g transform="translate(13.461 14.045)"><circle cx="0.849" cy="0.849" r="0.849" fill="#161818"/></g><g transform="translate(18.047 20.088)"><path d="M125.417,144.857l-.625-2.447-1.852,1.873Z" transform="translate(-122.94 -142.41)" fill="#555"/></g><g transform="translate(14.001 1.797)"><rect width="0.551" height="2.542" fill="#181818"/></g><g transform="translate(14.033 23.984)"><rect width="0.551" height="2.542" fill="#181818"/></g><g transform="translate(24.189 14.033)"><rect width="0.551" height="2.542" transform="translate(0 0.551) rotate(-90)" fill="#181818"/></g><g transform="translate(2.157 13.677)"><rect width="0.551" height="2.542" transform="translate(0 0.551) rotate(-90)" fill="#181818"/></g></g><text transform="translate(32.905 16.308)" fill="#e4361b" font-size="13" font-family="SegoeUI, Segoe UI"><tspan x="0" y="0">10</tspan></text></g></svg>