<svg xmlns="http://www.w3.org/2000/svg" width="69.458" height="69.458" viewBox="0 0 69.458 69.458"><g transform="translate(41.908 35.178)"><g transform="translate(-41.908 -35.178)"><circle cx="24.557" cy="24.557" r="24.557" transform="translate(0 34.729) rotate(-45)" fill="#00c4a2"/></g><path d="M80.062,72.176a57.033,57.033,0,0,0-4.573,17.885q-.127,1.875-.08,3.764a27.509,27.509,0,0,0,1.233,7.5l-.136.061c-4.8-8.495-4.8-20.774-2.973-30.268l.1-.515c.039-.18.068-.335.124-.556Z" transform="translate(-86.568 -79.688)" fill="#fd8900"/><path d="M80.678,72.184l-6.3-2.124a60.547,60.547,0,0,0-1.155,7.907l2.442-.609,2.57,1.524A52.011,52.011,0,0,1,80.678,72.184Z" transform="translate(-87.185 -79.696)" fill="#d47205"/><path d="M58.58,38.018l-6.956-4.124-7.849,1.959,1.772-7.893L41.26,21.1l8.053-.752,5.2-6.2,3.2,7.427,7.5,3.029-6.07,5.344Z" transform="translate(-62.982 -37.356)" fill="#fdb400"/><path d="M55.724,37.5l-6.968,1.738,1.573-7.007-3.808-6.09,7.153-.67,4.614-5.5,2.847,6.594,6.66,2.689L62.4,34l-.5,7.165Z" transform="translate(-66.965 -41.763)" fill="#fdc336"/><path d="M50.471,37.719A11.93,11.93,0,0,0,62.333,27.047l-1.2-.483L58.287,19.97l-4.614,5.5-7.153.67,3.806,6.09-1.214,5.41A11.987,11.987,0,0,0,50.471,37.719Z" transform="translate(-66.965 -41.763)" fill="#fdc336" opacity="0.51"/><g transform="translate(-11.771 3.289)"><path d="M89.726,150.11c-.007.18-.032.35-.053.527-.595,4.568-3.044,9.208-7.335,11.165l-.078-.129c2.961-2.473,4.073-6.107,3.881-9.971a10.9,10.9,0,0,0-.16-1.43Z" transform="translate(-82.26 -143.605)" fill="#fdda04"/><path d="M97.606,154.683l.262,0,1.619,1.636a16.9,16.9,0,0,0,1.83-6.211l-3.747.165A14.024,14.024,0,0,1,97.606,154.683Z" transform="translate(-93.854 -143.605)" fill="#e8bc07"/><path d="M86.84,133.346l3.109,3.141,1.41-4.187,3.946-1.988-3.546-2.636-.67-4.366-3.6,2.558-4.361-.714,1.32,4.216L82.42,133.3Z" transform="translate(-82.381 -123.31)" fill="#fdcf12"/><path d="M90.972,136.7l-3.512-.039,1.609-3.121-1.049-3.352,3.466.568,2.864-2.034.532,3.471,2.82,2.1-3.138,1.578-1.121,3.328Z" transform="translate(-86.198 -127.407)" fill="#fdd738"/></g><g transform="translate(-2.351 -6.675)"><path d="M144.7,108.11c.083.16.146.32.214.485,1.731,4.269,1.883,9.514-.891,13.33l-.131-.073c1.362-3.609.539-7.32-1.529-10.589a11.647,11.647,0,0,0-.842-1.165Z" transform="translate(-136.557 -101.836)" fill="#fdda04"/><path d="M143.717,113.918l.231-.126,2.216.626a16.885,16.885,0,0,0-1.464-6.308L141.52,110.1A14.2,14.2,0,0,1,143.717,113.918Z" transform="translate(-136.557 -101.836)" fill="#e8bc07"/><path d="M128.332,93.09l4.252,1.2-.833-4.34,2.459-3.672-4.383-.549-2.733-3.473-1.876,4-4.148,1.524,3.223,3.022.17,4.415Z" transform="translate(-121.07 -82.26)" fill="#fdcf12"/><path d="M132.6,96.706l-3.075,1.7-.134-3.51-2.563-2.4,3.3-1.211,1.493-3.18,2.172,2.76,3.483.437-1.954,2.917.663,3.451Z" transform="translate(-125.432 -86.683)" fill="#fdd738"/></g><g transform="translate(-24.651 -0.84)"><path d="M54.879,137.48c.342,3.621,2.48,12.5,6.476,15.448l-.075.129c-4.463-2.116-8.5-10.466-9.849-14.8Z" transform="translate(-46.032 -129.912)" fill="#ffea06"/><path d="M54.879,137.48l-3.449.782a36.26,36.26,0,0,0,1.638,4.189l1.189-.9,1.388.187A31.171,31.171,0,0,1,54.879,137.48Z" transform="translate(-46.032 -129.912)" fill="#fdcd04"/><path d="M41.508,117.438l-4.378-.59L33.6,119.5l-.789-4.347L29.19,112.62l3.891-2.095,1.294-4.226,3.2,3.053,4.417-.075-1.917,3.983Z" transform="translate(-29.19 -106.3)" fill="#ffae11"/><path d="M37.934,119.029l-2.874-2.017,3.092-1.665,1.029-3.357,2.539,2.427,3.512-.061-1.524,3.165,1.143,3.323-3.48-.471-2.808,2.112Z" transform="translate(-33.635 -110.609)" fill="#fdc85c"/></g><g transform="translate(-26.778 -9.614)"><path d="M28.734,87.5c-.883,1.835-2.43,6.708-1.369,9.279l-.073.039c-1.527-2.306-1.044-7.475-.437-9.941Z" transform="translate(-24.855 -82.819)" fill="#ffea06"/><path d="M29.216,87.5l-1.879-.624a19.889,19.889,0,0,0-.427,2.48l.83-.085.612.493A17.18,17.18,0,0,1,29.216,87.5Z" transform="translate(-25.337 -82.819)" fill="#fdcd04"/><path d="M24.937,77.55,23.01,76l-2.461.252.881-2.313-1-2.262L22.9,71.8l1.845-1.648.646,2.386,2.138,1.245-2.07,1.352Z" transform="translate(-20.43 -70.15)" fill="#ffae11"/><path d="M23.934,76.312l-.794-1.8,1.964.1L26.569,73.3l.515,1.9,1.7.988-1.646,1.075-.415,1.922L25.191,77.95l-1.956.2Z" transform="translate(-22.482 -72.535)" fill="#fdc85c"/></g></g></svg>