<svg xmlns="http://www.w3.org/2000/svg" width="69.22" height="69.22" viewBox="0 0 69.22 69.22"><g transform="translate(41.911 41.907)"><g transform="translate(-41.911 -41.907)"><circle cx="24.473" cy="24.473" r="24.473" transform="translate(0 34.61) rotate(-45)" fill="#a2e5ff"/></g><g transform="translate(-11.096 -3.725)"><path d="M86.557,119.693a1.456,1.456,0,0,1-.423-.058.97.97,0,0,1-.336-.177.8.8,0,0,1-.223-.3,1.029,1.029,0,0,1-.085-.411h.539a.484.484,0,0,0,.174.37.582.582,0,0,0,.365.121.93.93,0,0,0,.225-.024.408.408,0,0,0,.177-.089.469.469,0,0,0,.116-.167.735.735,0,0,0,.041-.264v-.525a.72.72,0,0,1-.3.283,1,1,0,0,1-.447.1.969.969,0,0,1-.418-.082.7.7,0,0,1-.268-.225.807.807,0,0,1-.116-.285,1.971,1.971,0,0,1-.031-.392V116.21h.535v1.183a1.427,1.427,0,0,0,.024.276.68.68,0,0,0,.08.218.418.418,0,0,0,.152.145.471.471,0,0,0,.237.053.463.463,0,0,0,.414-.2.865.865,0,0,0,.135-.493V116.21h.535V118.7a.948.948,0,0,1-.285.75A1.194,1.194,0,0,1,86.557,119.693Z" transform="translate(-85.49 -116.147)" fill="#1fa3cc"/><path d="M97.227,117.314a1.107,1.107,0,0,0,.044.23.485.485,0,0,0,.106.189.512.512,0,0,0,.184.128.733.733,0,0,0,.281.046.516.516,0,0,0,.334-.087.548.548,0,0,0,.152-.21h.539a.793.793,0,0,1-.106.283.859.859,0,0,1-.213.237,1.11,1.11,0,0,1-.31.164,1.2,1.2,0,0,1-.4.06,1.237,1.237,0,0,1-.5-.094,1.013,1.013,0,0,1-.356-.254,1.055,1.055,0,0,1-.213-.382,1.5,1.5,0,0,1-.07-.472,1.457,1.457,0,0,1,.075-.476,1.118,1.118,0,0,1,.218-.382.961.961,0,0,1,.353-.252,1.2,1.2,0,0,1,.481-.092,1.113,1.113,0,0,1,.414.077,1.1,1.1,0,0,1,.339.218.986.986,0,0,1,.225.327,1.015,1.015,0,0,1,.08.406c0,.039,0,.085,0,.14a1.75,1.75,0,0,1-.022.193H97.227Zm.585-.96a.62.62,0,0,0-.416.143.521.521,0,0,0-.167.421h1.137a.524.524,0,0,0-.554-.564Z" transform="translate(-93.989 -115.95)" fill="#1fa3cc"/><path d="M109.842,116.018V118.3h-.535v-.31a.764.764,0,0,1-.307.271.9.9,0,0,1-.4.1,1.142,1.142,0,0,1-.477-.1,1.128,1.128,0,0,1-.37-.261,1.186,1.186,0,0,1-.239-.382,1.216,1.216,0,0,1-.085-.462,1.29,1.29,0,0,1,.085-.46,1.257,1.257,0,0,1,.239-.385,1.118,1.118,0,0,1,.37-.261,1.173,1.173,0,0,1,.477-.1.893.893,0,0,1,.4.1.73.73,0,0,1,.307.271v-.31h.535Zm-1.212,1.867a.642.642,0,0,0,.491-.215.755.755,0,0,0,.138-.23.838.838,0,0,0,0-.561.71.71,0,0,0-.138-.23.659.659,0,0,0-.213-.157.651.651,0,0,0-.278-.058.64.64,0,0,0-.276.058.649.649,0,0,0-.21.157.7.7,0,0,0-.135.23.879.879,0,0,0,0,.561.643.643,0,0,0,.135.23.649.649,0,0,0,.21.157A.64.64,0,0,0,108.63,117.885Z" transform="translate(-102.123 -115.958)" fill="#1fa3cc"/><path d="M121.8,116.6a.849.849,0,0,0-.106-.019c-.029,0-.063,0-.106,0a.672.672,0,0,0-.525.2.92.92,0,0,0-.181.631v.987h-.535v-2.286h.535v.368a.574.574,0,0,1,.111-.15.9.9,0,0,1,.167-.128.868.868,0,0,1,.206-.09.773.773,0,0,1,.223-.031.581.581,0,0,1,.21.034v.491Z" transform="translate(-111.918 -116.049)" fill="#1fa3cc"/></g><g transform="translate(-25.748 -20.25)"><path d="M119.42,152.5a6.3,6.3,0,0,1,1.536,2.4.975.975,0,0,0,1.635.561s.368,1.047,1.016,1.04a4.142,4.142,0,0,1,2.489,1.115s-.464-2.182-1.48-2.961-.68-.822-1.154-1.488C123.179,152.773,120.69,152.563,119.42,152.5Z" transform="translate(-96.56 -127.134)" fill="#f9362d"/><path d="M129,146.151a5.933,5.933,0,0,1,2.353,1.294.919.919,0,0,0,1.606-.273s.776.7,1.309.4a3.887,3.887,0,0,1,2.564-.2,5.822,5.822,0,0,0-2.561-1.78c-1.192-.186-.934-.372-1.625-.709C132.231,144.683,130.076,145.631,129,146.151Z" transform="translate(-103.823 -121.34)" fill="#f9362d"/><path d="M143.42,134.9a5.585,5.585,0,0,1,2.491.394.863.863,0,0,0,1.333-.752s.909.372,1.284-.06a3.661,3.661,0,0,1,2.2-.992,5.472,5.472,0,0,0-2.83-.759c-1.113.215-.943-.034-1.662-.111C145.807,132.574,144.206,134.1,143.42,134.9Z" transform="translate(-114.755 -112.06)" fill="#f9362d"/><path d="M153.63,119.313a5.183,5.183,0,0,1,2.339-.3.807.807,0,0,0,1-1.026s.914.094,1.137-.394a3.422,3.422,0,0,1,1.712-1.471,5.126,5.126,0,0,0-2.738.065c-.941.486-.856.22-1.519.339C155.159,116.6,154.123,118.386,153.63,119.313Z" transform="translate(-122.495 -99.426)" fill="#f9362d"/><path d="M160.74,97.011a4.855,4.855,0,0,1,1.838-1.2A.752.752,0,0,0,163,94.551s.8-.288.793-.789a3.19,3.19,0,0,1,.844-1.923A4.766,4.766,0,0,0,162.368,93c-.6.789-.629.527-1.137.9C160.929,94.116,160.781,96.034,160.74,97.011Z" transform="translate(-127.886 -81.147)" fill="#f9362d"/><path d="M160.3,77.154a4.48,4.48,0,0,1,1.529-1.335.7.7,0,0,0,.223-1.212s.7-.37.624-.825a2.948,2.948,0,0,1,.522-1.872,4.409,4.409,0,0,0-1.928,1.357c-.44.8-.508.566-.924.97C160.1,74.479,160.211,76.254,160.3,77.154Z" transform="translate(-127.473 -66.037)" fill="#f9362d"/><path d="M154.258,62.279a4.122,4.122,0,0,1,.834-1.669.639.639,0,0,0-.232-1.108s.467-.559.244-.919a2.7,2.7,0,0,1-.208-1.773,4.059,4.059,0,0,0-1.168,1.826c-.1.834-.235.658-.447,1.147A7.222,7.222,0,0,0,154.258,62.279Z" transform="translate(-122.219 -54.59)" fill="#f9362d"/><path d="M143.592,73.072a3.84,3.84,0,0,0-1.717-.293.6.6,0,0,1-.706-.786s-.677.044-.827-.324a2.511,2.511,0,0,0-1.221-1.134,3.791,3.791,0,0,1,2.022.128c.682.387.624.186,1.113.3C142.543,71.021,143.256,72.373,143.592,73.072Z" transform="translate(-111.495 -64.93)" fill="#f9362d"/><path d="M146.322,84.822a3.84,3.84,0,0,0-1.717-.293.6.6,0,0,1-.706-.786s-.677.044-.827-.324a2.511,2.511,0,0,0-1.221-1.134,3.79,3.79,0,0,1,2.022.128c.682.387.624.186,1.113.3C145.273,82.771,145.986,84.12,146.322,84.822Z" transform="translate(-113.565 -73.838)" fill="#f9362d"/><path d="M151.3,100.412a4.7,4.7,0,0,0-1.456-1.567.732.732,0,0,1-.1-1.294s-.692-.464-.564-.934a3.1,3.1,0,0,0-.341-2.017s1.5.747,1.872,1.633.469.648.864,1.117C151.81,97.631,151.493,99.479,151.3,100.412Z" transform="translate(-118.864 -83.239)" fill="#f9362d"/><path d="M143.043,117.822a5.075,5.075,0,0,0-.81-2.158.788.788,0,0,1,.431-1.33s-.5-.745-.181-1.161a3.337,3.337,0,0,0,.484-2.153,5,5,0,0,1,1.2,2.395c.012,1.035.2.839.4,1.468C144.688,115.258,143.619,116.97,143.043,117.822Z" transform="translate(-113.677 -95.687)" fill="#f9362d"/><path d="M130.366,130.16a4.706,4.706,0,0,0-.2-2.129.732.732,0,0,1,.706-1.088s-.266-.789.119-1.084a3.1,3.1,0,0,0,.955-1.809,4.637,4.637,0,0,1,.493,2.436c-.242.931-.022.8,0,1.413C132.458,128.261,131.087,129.536,130.366,130.16Z" transform="translate(-104.63 -105.566)" fill="#f9362d"/><path d="M145.781,52.24a3.567,3.567,0,0,1,.126-1.616.555.555,0,0,0-.549-.815s.191-.6-.1-.82a2.349,2.349,0,0,1-.747-1.359,3.507,3.507,0,0,0-.341,1.85c.2.7.027.607.015,1.069C144.172,50.83,145.227,51.778,145.781,52.24Z" transform="translate(-115.287 -47.63)" fill="#f9362d"/><path d="M63.766,152.5a6.3,6.3,0,0,0-1.536,2.4.975.975,0,0,1-1.635.561s-.368,1.047-1.016,1.04a4.142,4.142,0,0,0-2.489,1.115s.464-2.182,1.48-2.961.68-.822,1.154-1.488C60.007,152.773,62.5,152.563,63.766,152.5Z" transform="translate(-49.306 -127.134)" fill="#f9362d"/><path d="M50.562,146.151a5.933,5.933,0,0,0-2.353,1.294.919.919,0,0,1-1.606-.273s-.776.7-1.309.4a3.887,3.887,0,0,0-2.564-.2,5.822,5.822,0,0,1,2.561-1.78c1.192-.186.934-.372,1.625-.709C47.331,144.683,49.486,145.631,50.562,146.151Z" transform="translate(-38.42 -121.34)" fill="#f9362d"/><path d="M37.78,134.9a5.585,5.585,0,0,0-2.491.394.863.863,0,0,1-1.333-.752s-.909.372-1.284-.06a3.661,3.661,0,0,0-2.2-.992,5.472,5.472,0,0,1,2.83-.759c1.113.215.943-.034,1.662-.111C35.392,132.574,36.993,134.1,37.78,134.9Z" transform="translate(-29.125 -112.06)" fill="#f9362d"/><path d="M31.095,119.313a5.183,5.183,0,0,0-2.339-.3.807.807,0,0,1-1-1.026s-.914.094-1.137-.394a3.422,3.422,0,0,0-1.712-1.471,5.126,5.126,0,0,1,2.738.065c.941.486.856.22,1.519.339C29.566,116.6,30.6,118.386,31.095,119.313Z" transform="translate(-24.91 -99.426)" fill="#f9362d"/><path d="M31.149,97.011a4.855,4.855,0,0,0-1.838-1.2.752.752,0,0,1-.423-1.263s-.8-.288-.793-.789a3.19,3.19,0,0,0-.844-1.923A4.766,4.766,0,0,1,29.521,93c.6.789.629.527,1.137.9C30.96,94.116,31.108,96.034,31.149,97.011Z" transform="translate(-26.684 -81.147)" fill="#f9362d"/><path d="M34.4,77.154a4.48,4.48,0,0,0-1.529-1.335.7.7,0,0,1-.223-1.212s-.7-.37-.624-.825A2.948,2.948,0,0,0,31.5,71.91a4.409,4.409,0,0,1,1.928,1.357c.44.8.508.566.924.97C34.6,74.479,34.487,76.254,34.4,77.154Z" transform="translate(-29.906 -66.037)" fill="#f9362d"/><path d="M43.375,62.279a4.121,4.121,0,0,0-.834-1.669.639.639,0,0,1,.232-1.108s-.467-.559-.244-.919a2.7,2.7,0,0,0,.208-1.773A4.059,4.059,0,0,1,43.9,58.636c.1.834.235.658.447,1.147A7.222,7.222,0,0,1,43.375,62.279Z" transform="translate(-38.095 -54.59)" fill="#f9362d"/><path d="M46.5,73.072a3.84,3.84,0,0,1,1.717-.293.6.6,0,0,0,.706-.786s.677.044.827-.324a2.511,2.511,0,0,1,1.221-1.134,3.791,3.791,0,0,0-2.022.128c-.682.387-.624.186-1.113.3C47.55,71.021,46.836,72.373,46.5,73.072Z" transform="translate(-41.278 -64.93)" fill="#f9362d"/><path d="M43.77,84.822a3.84,3.84,0,0,1,1.717-.293.6.6,0,0,0,.706-.786s.677.044.827-.324a2.511,2.511,0,0,1,1.221-1.134,3.79,3.79,0,0,0-2.022.128c-.682.387-.624.186-1.113.3C44.82,82.771,44.106,84.12,43.77,84.822Z" transform="translate(-39.208 -73.838)" fill="#f9362d"/><path d="M43.972,100.412a4.707,4.707,0,0,1,1.454-1.567.732.732,0,0,0,.1-1.294s.692-.464.564-.934A3.1,3.1,0,0,1,46.43,94.6s-1.5.747-1.872,1.633-.469.648-.864,1.117C43.462,97.631,43.779,99.479,43.972,100.412Z" transform="translate(-39.089 -83.239)" fill="#f9362d"/><path d="M52.984,117.822a5.075,5.075,0,0,1,.81-2.158.788.788,0,0,0-.431-1.33s.5-.745.181-1.161a3.338,3.338,0,0,1-.484-2.153,5,5,0,0,0-1.2,2.395c-.012,1.035-.2.839-.4,1.468C51.339,115.258,52.409,116.97,52.984,117.822Z" transform="translate(-45.031 -95.687)" fill="#f9362d"/><path d="M66.157,130.16a4.707,4.707,0,0,1,.2-2.129.732.732,0,0,0-.706-1.088s.268-.789-.119-1.084a3.1,3.1,0,0,1-.955-1.809,4.637,4.637,0,0,0-.493,2.436c.242.931.022.8,0,1.413C64.065,128.261,65.437,129.536,66.157,130.16Z" transform="translate(-54.574 -105.566)" fill="#f9362d"/><path d="M52.518,52.24a3.567,3.567,0,0,0-.126-1.616.555.555,0,0,1,.549-.815s-.191-.6.1-.82a2.349,2.349,0,0,0,.747-1.359,3.507,3.507,0,0,1,.341,1.85c-.2.7-.027.607-.015,1.069C54.127,50.83,53.072,51.778,52.518,52.24Z" transform="translate(-45.693 -47.63)" fill="#f9362d"/><path d="M104.239,81.57a13.845,13.845,0,0,1-1.3,7.684,10.641,10.641,0,0,1-5.476,5.353c-3.43,1.347-8.761.685-10.993,4.455a.244.244,0,0,0,.085.334.247.247,0,0,0,.334-.085c2.126-3.507,7.281-2.8,10.781-4.189,5.135-2.039,8.495-8.9,6.611-15.6a10.017,10.017,0,0,0-.733-1.9.092.092,0,0,0-.167.075A30.622,30.622,0,0,1,104.239,81.57Z" transform="translate(-71.557 -70.335)" fill="#fdb400"/><path d="M123.421,154.946c-.3-.264-.614-.5-.936-.73s-.651-.44-.989-.639a11.221,11.221,0,0,0-1.04-.549,11.074,11.074,0,0,0-1.086-.438,10.506,10.506,0,0,1,1.05.51,11.243,11.243,0,0,1,.989.614c.319.22.631.45.929.7s.59.5.859.769l0,0a.162.162,0,1,0,.23-.23Z" transform="translate(-96.522 -127.202)" fill="#fdb400"/><path d="M133.4,149.959a11.061,11.061,0,0,0-1.105-.179c-.368-.044-.738-.068-1.108-.08s-.74-.007-1.108.017a9.849,9.849,0,0,0-1.1.131,9.811,9.811,0,0,1,1.1-.048c.365,0,.733.024,1.1.063s.726.089,1.084.16a10.842,10.842,0,0,1,1.057.252l0,0a.163.163,0,0,0,.094-.312A.018.018,0,0,0,133.4,149.959Z" transform="translate(-103.808 -125.007)" fill="#fdb400"/><path d="M147.388,136.714a9.659,9.659,0,0,0-1.035.2c-.339.08-.675.177-1,.283a10.28,10.28,0,0,0-1.9.834,9.679,9.679,0,0,1,.958-.389,10.063,10.063,0,0,1,.989-.29c.334-.08.67-.15,1.006-.2s.68-.092,1.013-.111h0a.166.166,0,0,0,.155-.172.162.162,0,0,0-.169-.155A.037.037,0,0,1,147.388,136.714Z" transform="translate(-114.778 -115.163)" fill="#fdb400"/><path d="M156.881,120.7c-.307.138-.593.288-.876.45s-.559.336-.825.522-.527.382-.774.59a8.35,8.35,0,0,0-.706.665,8.582,8.582,0,0,1,.757-.6,9.185,9.185,0,0,1,.81-.518c.278-.16.561-.31.851-.443a9.084,9.084,0,0,1,.878-.363l0,0a.163.163,0,0,0-.109-.307S156.883,120.7,156.881,120.7Z" transform="translate(-122.549 -103.018)" fill="#fdb400"/><path d="M162.631,100.048c-.2.239-.38.481-.551.733s-.331.508-.479.772-.285.535-.409.81a8.076,8.076,0,0,0-.322.844,8.9,8.9,0,0,1,.394-.808,8.48,8.48,0,0,1,.474-.759c.169-.244.348-.484.537-.714a8.567,8.567,0,0,1,.593-.655l0,0a.162.162,0,0,0-.227-.232A.054.054,0,0,0,162.631,100.048Z" transform="translate(-127.984 -87.325)" fill="#fdb400"/><path d="M161.955,80.469c-.152.247-.283.493-.409.747s-.235.51-.336.772-.191.527-.266.8a7.924,7.924,0,0,0-.184.815,7.552,7.552,0,0,1,.259-.791,7.856,7.856,0,0,1,.339-.757c.123-.247.256-.486.4-.721a7.867,7.867,0,0,1,.46-.675l0,0a.162.162,0,0,0-.256-.2A.135.135,0,0,0,161.955,80.469Z" transform="translate(-127.901 -72.465)" fill="#fdb400"/><path d="M156.832,66.254c-.044.266-.068.52-.085.779s-.019.518-.014.774.024.515.053.769a6.61,6.61,0,0,0,.133.757,6.718,6.718,0,0,1-.051-.762c0-.254,0-.508.027-.759s.051-.5.094-.752.094-.5.157-.733l0,0a.163.163,0,1,0-.314-.087A.047.047,0,0,1,156.832,66.254Z" transform="translate(-124.846 -61.644)" fill="#fdb400"/><path d="M147.455,74.052c.223.114.428.237.634.368s.4.271.593.418a7.213,7.213,0,0,1,.551.467,6.708,6.708,0,0,1,.5.518,6.542,6.542,0,0,0-.547-.46,6.967,6.967,0,0,0-.588-.4c-.2-.123-.409-.239-.619-.346a6.713,6.713,0,0,0-.639-.285l0,0a.152.152,0,1,1,.109-.283Z" transform="translate(-117.648 -67.649)" fill="#fdb400"/><path d="M150.177,85.8c.223.114.428.237.634.368s.4.271.593.418a7.209,7.209,0,0,1,.551.467,6.7,6.7,0,0,1,.5.518,6.544,6.544,0,0,0-.547-.46,6.964,6.964,0,0,0-.588-.4c-.2-.123-.409-.239-.619-.346a6.718,6.718,0,0,0-.639-.285l-.007,0a.152.152,0,1,1,.109-.283A.034.034,0,0,1,150.177,85.8Z" transform="translate(-119.71 -76.557)" fill="#fdb400"/><path d="M154.056,104.232a8.969,8.969,0,0,1,.343.83c.1.278.189.564.264.849a8.756,8.756,0,0,1,.189.866,8.221,8.221,0,0,1,.1.876,7.947,7.947,0,0,0-.189-.856c-.077-.281-.169-.556-.273-.827s-.218-.537-.343-.8-.264-.518-.409-.755l0,0a.186.186,0,0,1,.317-.2A.061.061,0,0,0,154.056,104.232Z" transform="translate(-122.554 -90.462)" fill="#fdb400"/><path d="M146.638,122.923a9.224,9.224,0,0,1,0,.968c-.015.319-.044.639-.082.953a9.4,9.4,0,0,1-.167.938,8.36,8.36,0,0,1-.261.912,8.714,8.714,0,0,0,.162-.931,9.359,9.359,0,0,0,.065-.938c.007-.312,0-.624-.017-.936s-.051-.624-.1-.922v0a.2.2,0,1,1,.394-.065A.143.143,0,0,1,146.638,122.923Z" transform="translate(-116.81 -104.565)" fill="#fdb400"/><path d="M132.509,135.09a8.962,8.962,0,0,1-.232.868c-.089.283-.193.561-.3.834a8.051,8.051,0,0,1-.377.8,8.212,8.212,0,0,1-.455.755,8.409,8.409,0,0,0,.37-.793,8.308,8.308,0,0,0,.285-.825c.082-.278.155-.559.21-.842a8.025,8.025,0,0,0,.133-.849v0a.186.186,0,1,1,.37.036S132.509,135.083,132.509,135.09Z" transform="translate(-105.445 -113.766)" fill="#fdb400"/><path d="M146.631,55.978a6.179,6.179,0,0,0,.189.653c.073.213.152.423.242.629s.186.406.3.6.2.392.322.576a5.577,5.577,0,0,1-.259-.607,6.561,6.561,0,0,1-.227-.619c-.065-.21-.123-.421-.172-.636s-.087-.431-.114-.641v0a.141.141,0,1,0-.281.034A.034.034,0,0,1,146.631,55.978Z" transform="translate(-117.185 -53.828)" fill="#fdb400"/><path d="M158.8,97.027h-.162c0-.585-.757-.9-.767-.907l.06-.15C157.969,95.985,158.8,96.333,158.8,97.027Z" transform="translate(-125.71 -84.278)" fill="#fdb400"/><path d="M156.6,95.219a.339.339,0,1,0,.339-.339A.338.338,0,0,0,156.6,95.219Z" transform="translate(-124.747 -83.451)" fill="#fdb400"/><path d="M152.7,117.569a.339.339,0,1,0,.339-.339A.338.338,0,0,0,152.7,117.569Z" transform="translate(-121.79 -100.395)" fill="#fdb400"/><path d="M165.54,111.857A.457.457,0,1,0,166,111.4.457.457,0,0,0,165.54,111.857Z" transform="translate(-131.525 -95.975)" fill="#fdb400"/><path d="M122.57,141.867a.457.457,0,1,0,.457-.457A.457.457,0,0,0,122.57,141.867Z" transform="translate(-98.948 -118.727)" fill="#fdb400"/><circle cx="0.457" cy="0.457" r="0.457" transform="translate(33.645 10.512)" fill="#fdb400"/><path d="M146.98,67.627a.457.457,0,1,0,.457-.457A.457.457,0,0,0,146.98,67.627Z" transform="translate(-117.454 -62.444)" fill="#fdb400"/><path d="M161.2,94.01,161.04,94a1.264,1.264,0,0,1,1.047-1.166l.022.16A1.093,1.093,0,0,0,161.2,94.01Z" transform="translate(-128.113 -81.897)" fill="#fdb400"/><path d="M159.062,114.446l-.152-.058c.423-1.1,1.935-.97,1.95-.968l-.015.162C160.833,113.58,159.442,113.459,159.062,114.446Z" transform="translate(-126.498 -97.503)" fill="#fdb400"/><path d="M154.494,120.124l-.16-.022a2.046,2.046,0,0,0-.464-1.541l.119-.111A2.2,2.2,0,0,1,154.494,120.124Z" transform="translate(-122.677 -101.32)" fill="#fdb400"/><path d="M122.054,146.3l-.114-.114a2.65,2.65,0,0,0,.518-1.921l.162-.019A2.793,2.793,0,0,1,122.054,146.3Z" transform="translate(-98.471 -120.88)" fill="#fdb400"/><path d="M42.283,81.57a13.845,13.845,0,0,0,1.3,7.684,10.641,10.641,0,0,0,5.476,5.353c3.423,1.345,8.761.687,10.993,4.455a.244.244,0,0,1-.085.334.247.247,0,0,1-.334-.085c-1.417-2.339-4.146-2.786-6.821-3.253-2.6-.447-5.014-.805-7.37-3.219a13.677,13.677,0,0,1-3.73-9.286,13.283,13.283,0,0,1,1.26-5.924.092.092,0,0,1,.167.075A15,15,0,0,0,42.283,81.57Z" transform="translate(-37.646 -70.335)" fill="#fdb400"/><path d="M67.812,154.946c.3-.264.614-.5.936-.73s.651-.44.989-.639a11.22,11.22,0,0,1,1.04-.549,11.074,11.074,0,0,1,1.086-.438,10.506,10.506,0,0,0-1.05.51,11.24,11.24,0,0,0-.989.614c-.319.22-.631.45-.929.7s-.59.5-.859.769l0,0a.162.162,0,0,1-.23-.23Z" transform="translate(-57.392 -127.202)" fill="#fdb400"/><path d="M56.451,149.959a11.061,11.061,0,0,1,1.105-.179c.368-.044.738-.068,1.108-.08s.74-.007,1.108.017a9.849,9.849,0,0,1,1.1.131,9.811,9.811,0,0,0-1.1-.048c-.365,0-.733.024-1.1.063s-.726.089-1.084.16a10.843,10.843,0,0,0-1.057.252l0,0a.163.163,0,1,1-.094-.312A.018.018,0,0,1,56.451,149.959Z" transform="translate(-48.723 -125.007)" fill="#fdb400"/><path d="M43.788,136.714a9.659,9.659,0,0,1,1.035.2c.339.08.675.177,1,.283a10.28,10.28,0,0,1,1.9.834,9.678,9.678,0,0,0-.958-.389,10.064,10.064,0,0,0-.989-.29c-.334-.08-.67-.15-1.006-.2s-.68-.092-1.013-.111h0a.163.163,0,1,1,.017-.327A.026.026,0,0,0,43.788,136.714Z" transform="translate(-39.079 -115.163)" fill="#fdb400"/><path d="M36.547,120.7c.307.138.593.288.876.45s.559.336.825.522.527.382.774.59a8.348,8.348,0,0,1,.706.665,8.58,8.58,0,0,0-.757-.6,9.186,9.186,0,0,0-.81-.518c-.278-.16-.561-.31-.851-.443a9.085,9.085,0,0,0-.878-.363l0,0a.163.163,0,0,1,.109-.307S36.544,120.7,36.547,120.7Z" transform="translate(-33.559 -103.018)" fill="#fdb400"/><path d="M35.058,100.048c.2.239.38.481.551.733s.331.508.479.772.285.535.409.81a8.08,8.08,0,0,1,.322.844,8.9,8.9,0,0,0-.394-.808,8.478,8.478,0,0,0-.474-.759c-.169-.244-.348-.484-.537-.714a8.568,8.568,0,0,0-.593-.655l0,0a.162.162,0,0,1,.227-.232A.054.054,0,0,1,35.058,100.048Z" transform="translate(-32.385 -87.325)" fill="#fdb400"/><path d="M37.469,80.469c.152.247.283.493.409.747s.235.51.336.772.191.527.266.8a7.928,7.928,0,0,1,.184.815,7.55,7.55,0,0,0-.259-.791,7.849,7.849,0,0,0-.339-.757c-.123-.247-.256-.486-.4-.721a7.874,7.874,0,0,0-.46-.675l0,0a.162.162,0,0,1,.256-.2A.138.138,0,0,1,37.469,80.469Z" transform="translate(-34.204 -72.465)" fill="#fdb400"/><path d="M45.94,66.262c.044.266.068.52.085.779s.019.518.015.774-.024.515-.053.769a6.607,6.607,0,0,1-.133.757,6.717,6.717,0,0,0,.051-.762c0-.254,0-.508-.027-.759s-.051-.5-.094-.752-.094-.5-.16-.73l0,0a.163.163,0,1,1,.314-.087S45.938,66.257,45.94,66.262Z" transform="translate(-40.607 -61.652)" fill="#fdb400"/><path d="M48.487,74.052c-.223.114-.428.237-.634.368s-.4.271-.593.418a7.212,7.212,0,0,0-.551.467c-.177.162-.452.387-.61.566.177-.162.467-.368.658-.508a6.968,6.968,0,0,1,.588-.4c.2-.123.409-.239.619-.346a6.716,6.716,0,0,1,.639-.285l0,0a.152.152,0,0,0-.109-.283Z" transform="translate(-40.975 -67.649)" fill="#fdb400"/><path d="M46.106,85.8c-.223.114-.428.237-.634.368s-.4.271-.593.418a7.211,7.211,0,0,0-.551.467,6.7,6.7,0,0,0-.5.518,6.544,6.544,0,0,1,.547-.46,6.968,6.968,0,0,1,.588-.4c.2-.123.409-.239.619-.346a6.715,6.715,0,0,1,.639-.285l.007,0a.152.152,0,0,0-.109-.283A.034.034,0,0,0,46.106,85.8Z" transform="translate(-39.254 -76.557)" fill="#fdb400"/><path d="M46.155,104.232a8.97,8.97,0,0,0-.343.83c-.1.278-.189.564-.264.849a8.76,8.76,0,0,0-.189.866,8.217,8.217,0,0,0-.1.876,7.947,7.947,0,0,1,.189-.856c.077-.281.169-.556.273-.827s.218-.537.343-.8.264-.518.409-.755l0,0a.186.186,0,1,0-.317-.2A.061.061,0,0,1,46.155,104.232Z" transform="translate(-40.338 -90.462)" fill="#fdb400"/><path d="M55.839,122.923c-.019.331-.015.646,0,.968s.044.639.082.953a9.4,9.4,0,0,0,.167.938,8.365,8.365,0,0,0,.261.912,8.719,8.719,0,0,1-.162-.931,9.36,9.36,0,0,1-.065-.938c-.007-.312,0-.624.017-.936s.051-.624.1-.922v0a.2.2,0,0,0-.394-.065A.144.144,0,0,0,55.839,122.923Z" transform="translate(-48.348 -104.565)" fill="#fdb400"/><path d="M67.307,135.09a8.958,8.958,0,0,0,.232.868c.09.283.194.561.3.834a8.052,8.052,0,0,0,.377.8,8.211,8.211,0,0,0,.455.755,8.411,8.411,0,0,1-.37-.793,8.306,8.306,0,0,1-.285-.825c-.082-.278-.155-.559-.21-.842a8.025,8.025,0,0,1-.133-.849v0a.186.186,0,1,0-.37.036S67.307,135.083,67.307,135.09Z" transform="translate(-57.051 -113.766)" fill="#fdb400"/><path d="M54.23,55.978a6.18,6.18,0,0,1-.189.653c-.073.213-.152.423-.242.629s-.186.406-.3.6a5.376,5.376,0,0,1-.3.542,5.422,5.422,0,0,0,.242-.573,6.566,6.566,0,0,0,.227-.619c.065-.21.123-.421.172-.636s.087-.431.114-.641v0a.141.141,0,1,1,.281.034A.035.035,0,0,0,54.23,55.978Z" transform="translate(-46.357 -53.828)" fill="#fdb400"/><path d="M42.562,97.019H42.4c0-.694.832-1.045.866-1.059l.06.15C43.319,96.115,42.562,96.434,42.562,97.019Z" transform="translate(-38.17 -84.27)" fill="#fdb400"/><path d="M45.387,95.219a.339.339,0,1,1-.339-.339A.338.338,0,0,1,45.387,95.219Z" transform="translate(-39.921 -83.451)" fill="#fdb400"/><path d="M49.287,117.569a.339.339,0,1,1-.339-.339A.338.338,0,0,1,49.287,117.569Z" transform="translate(-42.877 -100.395)" fill="#fdb400"/><path d="M35.7,111.857a.457.457,0,1,1-.457-.457A.457.457,0,0,1,35.7,111.857Z" transform="translate(-32.4 -95.975)" fill="#fdb400"/><path d="M78.674,141.867a.457.457,0,1,1-.457-.457A.457.457,0,0,1,78.674,141.867Z" transform="translate(-64.977 -118.727)" fill="#fdb400"/><circle cx="0.457" cy="0.457" r="0.457" transform="translate(2.76 10.512)" fill="#fdb400"/><path d="M54.264,67.627a.457.457,0,1,1-.457-.457A.457.457,0,0,1,54.264,67.627Z" transform="translate(-46.471 -62.444)" fill="#fdb400"/><path d="M39.557,94.01a1.09,1.09,0,0,0-.907-1.021l.022-.16A1.271,1.271,0,0,1,39.719,94Z" transform="translate(-35.327 -81.897)" fill="#fdb400"/><path d="M38.937,114.442c-.38-.987-1.768-.866-1.783-.866l-.015-.162c.015,0,1.526-.133,1.95.968Z" transform="translate(-34.182 -97.499)" fill="#fdb400"/><path d="M47.6,120.131a2.165,2.165,0,0,1,.508-1.671l.119.111a2.051,2.051,0,0,0-.464,1.541Z" transform="translate(-42.1 -101.328)" fill="#fdb400"/><path d="M79.881,146.3a2.767,2.767,0,0,1-.564-2.056l.162.019A2.65,2.65,0,0,0,80,146.18Z" transform="translate(-66.145 -120.872)" fill="#fdb400"/><path d="M99.643,152.151a1.026,1.026,0,1,1-1-1.251A1.146,1.146,0,0,1,99.643,152.151Z" transform="translate(-80.048 -125.921)" fill="#fdb400"/></g><g transform="translate(-13.364 -24.287)"><path d="M81.1,47.736V36.791l-2.5,1.7L76.11,34.841l5.948-3.9h3.984v16.8Z" transform="translate(-76.11 -30.94)" fill="#fdb400"/><path d="M84.7,33.26h3.253V48.931H84.135V37.486l-2.912,1.986L79.37,36.758Z" transform="translate(-78.581 -32.699)" fill="#fff175"/><g transform="translate(4.272 0.561)"><path d="M106.667,35.471l-2.208-2.211h-.4l2.607,2.61Z" transform="translate(-101.571 -33.26)" fill="#fdf6c3"/><path d="M98.866,40.688,94.491,36.31l-.721.474,5.1,5.1Z" transform="translate(-93.77 -35.572)" fill="#fdf6c3"/><path d="M102.884,61.607,99.07,57.79v.8l3.814,3.817Z" transform="translate(-97.788 -51.857)" fill="#fdf6c3"/><path d="M102.884,70.057,99.07,66.24v.8l3.814,3.817Z" transform="translate(-97.788 -58.263)" fill="#fdf6c3"/></g></g></g></svg>