<svg xmlns="http://www.w3.org/2000/svg" width="45.904" height="61.825" viewBox="0 0 45.904 61.825"><g transform="translate(12.1)"><path d="M75.655,0,69.027,16.242H55.26L61.379,0Z" transform="translate(-50.964)" fill="#8d2323"/><path d="M62.568,55.16H47.662a1.772,1.772,0,0,0-1.772,1.772v9.493H64.342V56.932A1.773,1.773,0,0,0,62.568,55.16Zm.462,3.478H46.861v-.725a1.429,1.429,0,0,1,1.429-1.429H61.6a1.429,1.429,0,0,1,1.429,1.429Z" transform="translate(-43.875 -41.734)" fill="#c75506"/><path d="M28.93,0l6.409,16.242H49.106L42.84,0Z" transform="translate(-31.043)" fill="#f9362d"/><g transform="translate(-0.346)"><path d="M43.881,16.242,36.983,0H36.19l6.9,16.242Z" transform="translate(-36.19)" fill="#800b0b"/><path d="M54.271,16.242,47.373,0H46.58l6.9,16.242Z" transform="translate(-44.051)" fill="#800b0b"/><path d="M66.121,16.242,59.223,0H58.43l6.9,16.242Z" transform="translate(-53.017)" fill="#800b0b"/><path d="M77.521,16.242,70.623,0H69.83l6.9,16.242Z" transform="translate(-61.642)" fill="#800b0b"/></g><circle cx="20.005" cy="20.005" r="20.005" transform="translate(-12.1 55.415) rotate(-80.782)" fill="#fdb639"/><path d="M51.1,100.32A20.006,20.006,0,0,1,22.81,128.606,20.006,20.006,0,1,0,51.1,100.32Z" transform="translate(-26.413 -75.902)" fill="#e87603"/><circle cx="16.315" cy="16.315" r="16.315" transform="translate(-7.866 52.364) rotate(-80.782)" fill="#ff994f"/><g transform="translate(-3.164 28.673)" opacity="0.69"><g transform="translate(10.43 21.251)"><path d="M70.932,205.592a2.532,2.532,0,0,1,.808,1.336,2.619,2.619,0,0,1-1.5-.482,2.532,2.532,0,0,1-.808-1.336A2.6,2.6,0,0,1,70.932,205.592Z" transform="translate(-68.951 -205.109)" fill="#fdb248"/><path d="M68.67,212.094a2.622,2.622,0,0,1,1.58.032,2.563,2.563,0,0,1-1.21,1,2.622,2.622,0,0,1-1.58-.032A2.563,2.563,0,0,1,68.67,212.094Z" transform="translate(-67.46 -210.31)" fill="#fdb248"/></g><g transform="translate(1.692 15.522)"><path d="M60.959,202.192a2.513,2.513,0,0,1,.613,1.431,2.6,2.6,0,0,1-1.419-.682,2.513,2.513,0,0,1-.613-1.431A2.624,2.624,0,0,1,60.959,202.192Z" transform="translate(-52.73 -196.657)" fill="#fdb248"/><path d="M57.319,209.073a2.615,2.615,0,0,1,1.56.246,2.573,2.573,0,0,1-1.339.825,2.616,2.616,0,0,1-1.56-.246A2.589,2.589,0,0,1,57.319,209.073Z" transform="translate(-50.036 -202.351)" fill="#fdb248"/><path d="M53.283,197.553a2.511,2.511,0,0,1,.375,1.509,2.579,2.579,0,0,1-1.292-.893,2.511,2.511,0,0,1-.375-1.509A2.579,2.579,0,0,1,53.283,197.553Z" transform="translate(-47.013 -192.987)" fill="#fdb248"/><path d="M48.166,204.535a2.6,2.6,0,0,1,1.5.484,2.272,2.272,0,0,1-2.955.124A2.612,2.612,0,0,1,48.166,204.535Z" transform="translate(-43.022 -198.944)" fill="#fdb248"/><path d="M46.177,190.616a2.518,2.518,0,0,1-.007,1.555A2.566,2.566,0,0,1,45.136,191a2.518,2.518,0,0,1,.007-1.555A2.566,2.566,0,0,1,46.177,190.616Z" transform="translate(-41.738 -187.524)" fill="#fdb248"/><path d="M39.42,197.13a2.59,2.59,0,0,1,1.336.828,2.624,2.624,0,0,1-1.56.243,2.59,2.59,0,0,1-1.336-.828A2.609,2.609,0,0,1,39.42,197.13Z" transform="translate(-36.327 -193.314)" fill="#fdb248"/><path d="M40.644,182.95a2.515,2.515,0,0,1-.38,1.509,2.184,2.184,0,0,1-.343-2.889A2.525,2.525,0,0,1,40.644,182.95Z" transform="translate(-37.589 -181.57)" fill="#fdb248"/><path d="M33.135,188.257a2.55,2.55,0,0,1,1.1,1.115,2.622,2.622,0,0,1-1.575-.127,2.55,2.55,0,0,1-1.1-1.115A2.624,2.624,0,0,1,33.135,188.257Z" transform="translate(-31.56 -186.483)" fill="#fdb248"/></g><g transform="translate(0 6.036)"><path d="M35.8,173.745a2.53,2.53,0,0,1-.677,1.4,2.182,2.182,0,0,1,.246-2.9A2.509,2.509,0,0,1,35.8,173.745Z" transform="translate(-32.232 -165.033)" fill="#fdb248"/><path d="M28.249,177.447a2.536,2.536,0,0,1,.854,1.307,2.628,2.628,0,0,1-1.519-.431,2.536,2.536,0,0,1-.854-1.307A2.625,2.625,0,0,1,28.249,177.447Z" transform="translate(-26.214 -168.638)" fill="#fdb248"/><path d="M33.226,165.163a2.527,2.527,0,0,1-.893,1.28,2.516,2.516,0,0,1-.185-1.543,2.541,2.541,0,0,1,.893-1.28A2.5,2.5,0,0,1,33.226,165.163Z" transform="translate(-30.271 -158.504)" fill="#fdb248"/><path d="M26.039,167.312a2.521,2.521,0,0,1,.633,1.424,2.6,2.6,0,0,1-1.429-.662,2.521,2.521,0,0,1-.633-1.424A2.62,2.62,0,0,1,26.039,167.312Z" transform="translate(-24.61 -160.796)" fill="#fdb248"/><path d="M32.671,155.771a2.569,2.569,0,0,1-1.183,1.03,2.506,2.506,0,0,1,.2-1.541,2.569,2.569,0,0,1,1.183-1.03A2.506,2.506,0,0,1,32.671,155.771Z" transform="translate(-29.782 -151.399)" fill="#fdb248"/><path d="M26.661,155.443a2.521,2.521,0,0,1,.263,1.533,2.581,2.581,0,0,1-1.222-.983,2.5,2.5,0,0,1-.263-1.533A2.563,2.563,0,0,1,26.661,155.443Z" transform="translate(-25.217 -151.573)" fill="#fdb248"/><path d="M33.817,146.571a2.607,2.607,0,0,1-1.4.728,2.5,2.5,0,0,1,.565-1.451,2.607,2.607,0,0,1,1.4-.728A2.529,2.529,0,0,1,33.817,146.571Z" transform="translate(-30.519 -144.507)" fill="#fdb248"/><path d="M29.314,143.839a2.5,2.5,0,0,1-.112,1.55,2.55,2.55,0,0,1-.954-1.239,2.5,2.5,0,0,1,.112-1.55A2.564,2.564,0,0,1,29.314,143.839Z" transform="translate(-27.301 -142.6)" fill="#fdb248"/></g><path d="M36.839,139.266a2.614,2.614,0,0,1-1.529.394,2.538,2.538,0,0,1,.886-1.288,2.614,2.614,0,0,1,1.529-.394A2.538,2.538,0,0,1,36.839,139.266Z" transform="translate(-32.706 -133.064)" fill="#fdb248"/><path d="M33.78,134.389a2.51,2.51,0,0,1-.467,1.485,2.181,2.181,0,0,1-.175-2.9A2.519,2.519,0,0,1,33.78,134.389Z" transform="translate(-30.706 -129.278)" fill="#fdb248"/><path d="M41,132.52a2.615,2.615,0,0,1-1.572.151,2.543,2.543,0,0,1,1.081-1.132,2.615,2.615,0,0,1,1.572-.151A2.555,2.555,0,0,1,41,132.52Z" transform="translate(-35.823 -128.036)" fill="#fdb248"/><path d="M38.84,126.452a2.522,2.522,0,0,1-.7,1.392,2.179,2.179,0,0,1,.295-2.894A2.521,2.521,0,0,1,38.84,126.452Z" transform="translate(-34.531 -123.21)" fill="#fdb248"/><g transform="translate(16.03 21.142)"><path d="M91.278,205.142a2.532,2.532,0,0,0-.808,1.336,2.619,2.619,0,0,0,1.5-.482,2.532,2.532,0,0,0,.808-1.336A2.619,2.619,0,0,0,91.278,205.142Z" transform="translate(-90.47 -204.66)" fill="#fdb248"/><path d="M92.05,211.654a2.622,2.622,0,0,0-1.58.032,2.563,2.563,0,0,0,1.21,1,2.622,2.622,0,0,0,1.58-.032A2.578,2.578,0,0,0,92.05,211.654Z" transform="translate(-90.47 -209.867)" fill="#fdb248"/></g><g transform="translate(18.399 15.366)"><path d="M100.813,202.192a2.513,2.513,0,0,0-.613,1.431,2.6,2.6,0,0,0,1.419-.682,2.513,2.513,0,0,0,.613-1.431A2.624,2.624,0,0,0,100.813,202.192Z" transform="translate(-100.2 -196.501)" fill="#fdb248"/><path d="M101.76,209.073a2.615,2.615,0,0,0-1.56.246,2.573,2.573,0,0,0,1.339.825,2.616,2.616,0,0,0,1.56-.246A2.589,2.589,0,0,0,101.76,209.073Z" transform="translate(-100.2 -202.195)" fill="#fdb248"/><path d="M109.576,197.223a2.511,2.511,0,0,0-.375,1.509,2.58,2.58,0,0,0,1.292-.893,2.511,2.511,0,0,0,.375-1.509A2.579,2.579,0,0,0,109.576,197.223Z" transform="translate(-107.005 -192.582)" fill="#fdb248"/><path d="M110.712,204.205a2.616,2.616,0,0,0-1.5.484,2.272,2.272,0,0,0,2.955.124A2.589,2.589,0,0,0,110.712,204.205Z" transform="translate(-107.017 -198.539)" fill="#fdb248"/><path d="M117.636,190.436a2.518,2.518,0,0,0,.007,1.555,2.565,2.565,0,0,0,1.034-1.176,2.518,2.518,0,0,0-.007-1.555A2.566,2.566,0,0,0,117.636,190.436Z" transform="translate(-113.298 -187.232)" fill="#fdb248"/><path d="M119.4,196.953a2.589,2.589,0,0,0-1.336.828,2.624,2.624,0,0,0,1.56.243,2.59,2.59,0,0,0,1.336-.828A2.63,2.63,0,0,0,119.4,196.953Z" transform="translate(-113.713 -193.024)" fill="#fdb248"/><path d="M123.981,182.31a2.515,2.515,0,0,0,.38,1.509,2.549,2.549,0,0,0,.725-1.38,2.515,2.515,0,0,0-.38-1.509A2.521,2.521,0,0,0,123.981,182.31Z" transform="translate(-118.183 -180.93)" fill="#fdb248"/><path d="M126.68,187.61a2.55,2.55,0,0,0-1.1,1.115,2.622,2.622,0,0,0,1.575-.127,2.55,2.55,0,0,0,1.1-1.115A2.644,2.644,0,0,0,126.68,187.61Z" transform="translate(-119.402 -185.838)" fill="#fdb248"/></g><g transform="translate(24.917 6.068)"><path d="M128.3,173.584a2.531,2.531,0,0,0,.677,1.4,2.182,2.182,0,0,0-.246-2.9A2.509,2.509,0,0,0,128.3,173.584Z" transform="translate(-127.974 -164.944)" fill="#fdb248"/><path d="M131.954,177.286a2.536,2.536,0,0,0-.854,1.307,2.618,2.618,0,0,0,1.516-.431,2.535,2.535,0,0,0,.854-1.307A2.6,2.6,0,0,0,131.954,177.286Z" transform="translate(-130.097 -168.548)" fill="#fdb248"/><path d="M130.654,164.983a2.541,2.541,0,0,0,.893,1.28,2.515,2.515,0,0,0,.185-1.543,2.541,2.541,0,0,0-.893-1.28A2.5,2.5,0,0,0,130.654,164.983Z" transform="translate(-129.717 -158.399)" fill="#fdb248"/><path d="M135.133,167.132a2.521,2.521,0,0,0-.633,1.424,2.6,2.6,0,0,0,1.429-.662,2.521,2.521,0,0,0,.633-1.424A2.62,2.62,0,0,0,135.133,167.132Z" transform="translate(-132.67 -160.692)" fill="#fdb248"/><path d="M130.29,155.911a2.569,2.569,0,0,0,1.183,1.03,2.506,2.506,0,0,0-.2-1.541,2.569,2.569,0,0,0-1.183-1.03A2.507,2.507,0,0,0,130.29,155.911Z" transform="translate(-129.3 -151.537)" fill="#fdb248"/><path d="M136.092,155.573a2.5,2.5,0,0,0-.263,1.533,2.581,2.581,0,0,0,1.222-.983,2.5,2.5,0,0,0,.263-1.533A2.574,2.574,0,0,0,136.092,155.573Z" transform="translate(-133.655 -151.703)" fill="#fdb248"/><path d="M127.545,146.691a2.607,2.607,0,0,0,1.4.728,2.5,2.5,0,0,0-.565-1.451,2.607,2.607,0,0,0-1.4-.728A2.5,2.5,0,0,0,127.545,146.691Z" transform="translate(-126.98 -144.629)" fill="#fdb248"/><path d="M134.328,143.969a2.5,2.5,0,0,0,.112,1.55,2.564,2.564,0,0,0,.954-1.239,2.5,2.5,0,0,0-.112-1.55A2.549,2.549,0,0,0,134.328,143.969Z" transform="translate(-132.478 -142.73)" fill="#fdb248"/></g><path d="M123.206,139.526a2.614,2.614,0,0,0,1.529.394,2.538,2.538,0,0,0-.886-1.288,2.614,2.614,0,0,0-1.529-.394A2.538,2.538,0,0,0,123.206,139.526Z" transform="translate(-98.537 -133.261)" fill="#fdb248"/><path d="M130.31,134.649a2.509,2.509,0,0,0,.467,1.485,2.181,2.181,0,0,0,.175-2.9A2.519,2.519,0,0,0,130.31,134.649Z" transform="translate(-104.58 -129.474)" fill="#fdb248"/><path d="M118.061,132.83a2.615,2.615,0,0,0,1.572.151,2.543,2.543,0,0,0-1.081-1.132,2.615,2.615,0,0,0-1.572-.151A2.543,2.543,0,0,0,118.061,132.83Z" transform="translate(-94.497 -128.271)" fill="#fdb248"/><path d="M124.971,126.762a2.522,2.522,0,0,0,.7,1.392,2.179,2.179,0,0,0-.295-2.894A2.5,2.5,0,0,0,124.971,126.762Z" transform="translate(-100.536 -123.444)" fill="#fdb248"/><path d="M52.495,126.46a1.212,1.212,0,0,1-.114.1.337.337,0,0,1-.039.024,11.6,11.6,0,0,1,4.172,8.84c0,6.564-5.654,11.9-12.606,11.9s-12.606-5.34-12.606-11.9a11.555,11.555,0,0,1,3.838-8.543,1.164,1.164,0,0,1-.2-.08,11.734,11.734,0,0,0-3.838,8.624c0,6.669,5.744,12.095,12.808,12.095s12.808-5.425,12.808-12.095A11.787,11.787,0,0,0,52.495,126.46Z" transform="translate(-29.52 -124.352)" fill="#fdb248"/><path d="M48,126.527a2.608,2.608,0,0,1-1.563-.229,2.58,2.58,0,0,1,1.329-.84,2.608,2.608,0,0,1,1.563.229A2.58,2.58,0,0,1,48,126.527Z" transform="translate(-41.127 -123.562)" fill="#fdb248"/><path d="M47.028,119.353a2.553,2.553,0,0,1-1.022,1.185,2.494,2.494,0,0,1-.022-1.553,2.553,2.553,0,0,1,1.022-1.185A2.512,2.512,0,0,1,47.028,119.353Z" transform="translate(-40.692 -117.8)" fill="#fdb248"/><path d="M110.669,126.527a2.608,2.608,0,0,0,1.563-.229,2.58,2.58,0,0,0-1.329-.84,2.608,2.608,0,0,0-1.563.229A2.593,2.593,0,0,0,110.669,126.527Z" transform="translate(-88.717 -123.562)" fill="#fdb248"/><path d="M116.657,119.353a2.553,2.553,0,0,0,1.022,1.185,2.494,2.494,0,0,0,.022-1.553,2.552,2.552,0,0,0-1.022-1.185A2.512,2.512,0,0,0,116.657,119.353Z" transform="translate(-94.164 -117.8)" fill="#fdb248"/></g><g transform="translate(2.811 37.384)"><path d="M51.032,155.93v-2.02h.713v3.1H51l-1.117-1.993v1.993H49.16v-3.1h.75Z" transform="translate(-49.16 -153.832)" fill="#fdb248"/><path d="M63.215,156.849a1.692,1.692,0,0,1-.691-.136,1.559,1.559,0,0,1-.518-.36,1.578,1.578,0,0,1-.324-.521,1.755,1.755,0,0,1-.112-.613,1.7,1.7,0,0,1,.112-.613,1.577,1.577,0,0,1,.324-.521,1.559,1.559,0,0,1,.518-.36,1.692,1.692,0,0,1,.691-.134,1.713,1.713,0,0,1,.689.134,1.544,1.544,0,0,1,.84.881,1.736,1.736,0,0,1,0,1.227,1.54,1.54,0,0,1-.324.521,1.573,1.573,0,0,1-.516.36A1.642,1.642,0,0,1,63.215,156.849Zm0-.645a.855.855,0,0,0,.664-.3,1.006,1.006,0,0,0,.18-.314,1.14,1.14,0,0,0,0-.735.979.979,0,0,0-.18-.314.843.843,0,0,0-.285-.219.87.87,0,0,0-.38-.083.837.837,0,0,0-.38.083.875.875,0,0,0-.285.219,1.006,1.006,0,0,0-.18.314,1.141,1.141,0,0,0,0,.735.954.954,0,0,0,.18.314.854.854,0,0,0,.664.3Z" transform="translate(-58.549 -153.59)" fill="#fdb248"/><path d="M76.557,157.011H75.9l-1.107-3.1h.767l.674,2.188.669-2.188h.779Z" transform="translate(-68.552 -153.832)" fill="#fdb248"/><path d="M87.8,153.92h.725v3.1H87.8Z" transform="translate(-78.395 -153.84)" fill="#fdb248"/><path d="M95.8,155.666a1.371,1.371,0,0,1-.17.465,1.423,1.423,0,0,1-.326.38,1.586,1.586,0,0,1-.465.256,1.794,1.794,0,0,1-.584.092,1.723,1.723,0,0,1-.7-.134,1.594,1.594,0,0,1-.523-.355,1.528,1.528,0,0,1-.329-.521,1.737,1.737,0,0,1-.112-.626,1.678,1.678,0,0,1,.112-.611,1.546,1.546,0,0,1,.321-.518,1.578,1.578,0,0,1,.511-.36,1.646,1.646,0,0,1,.682-.134,1.869,1.869,0,0,1,.64.1,1.428,1.428,0,0,1,.477.275,1.334,1.334,0,0,1,.312.406,1.664,1.664,0,0,1,.151.5h-.75a.869.869,0,0,0-.09-.253.815.815,0,0,0-.163-.2.737.737,0,0,0-.234-.136.9.9,0,0,0-.3-.049.918.918,0,0,0-.4.083.883.883,0,0,0-.295.217.931.931,0,0,0-.183.312,1.109,1.109,0,0,0-.061.368,1.155,1.155,0,0,0,.063.382.936.936,0,0,0,.19.314.887.887,0,0,0,.307.212,1.045,1.045,0,0,0,.414.078.8.8,0,0,0,.253-.041.783.783,0,0,0,.219-.114.765.765,0,0,0,.17-.173.724.724,0,0,0,.1-.214Z" transform="translate(-82.019 -153.598)" fill="#fdb248"/><path d="M108.278,154.487v.7h1.173v.562h-1.173v.682h1.173v.577H107.56v-3.1h1.891v.577Z" transform="translate(-93.345 -153.832)" fill="#fdb248"/></g></g></svg>