<svg xmlns="http://www.w3.org/2000/svg" width="60" height="60" viewBox="0 0 60 60">
  <g id="Group_2768" data-name="Group 2768" transform="translate(-158 -128)">
    <circle id="Ellipse_29" data-name="Ellipse 29" cx="30" cy="30" r="30" transform="translate(158 128)" fill="#5ce3d9"/>
    <g id="Group_2753" data-name="Group 2753" transform="translate(170.225 143.931)">
      <g id="Group_2752" data-name="Group 2752" transform="translate(0 0)">
        <path id="Path_158" data-name="Path 158" d="M264.111,248.628h9.232a.545.545,0,0,0,.577-.577v-5.193a.545.545,0,0,0-.577-.577h-9.232a.545.545,0,0,0-.577.577v5.193A.545.545,0,0,0,264.111,248.628Zm.577-5.193h8.078v4.039h-8.078Z" transform="translate(-245.647 -229.01)" fill="#3d7782"/>
        <path id="Path_159" data-name="Path 159" d="M33.711,209.3h4.616a.577.577,0,1,0,0-1.154H33.711a.577.577,0,1,0,0,1.154Z" transform="translate(-30.826 -197.184)" fill="#3d7782"/>
        <path id="Path_160" data-name="Path 160" d="M136.111,209.3h4.616a.577.577,0,1,0,0-1.154h-4.616a.577.577,0,1,0,0,1.154Z" transform="translate(-126.302 -197.184)" fill="#3d7782"/>
        <path id="Path_161" data-name="Path 161" d="M33.711,243.435h7.5a.577.577,0,0,0,0-1.154h-7.5a.577.577,0,0,0,0,1.154Z" transform="translate(-30.826 -229.01)" fill="#3d7782"/>
        <path id="Path_162" data-name="Path 162" d="M180.508,242.28h-1.731a.577.577,0,1,0,0,1.154h1.731a.577.577,0,1,0,0-1.154Z" transform="translate(-166.083 -229.009)" fill="#3d7782"/>
        <path id="Path_163" data-name="Path 163" d="M33.1,52.13a2.15,2.15,0,0,0-1.558-.865L30.158,51.1V48.322a2.315,2.315,0,0,0-2.308-2.308H1.308A2.315,2.315,0,0,0-1,48.322V66.786A2.317,2.317,0,0,0,.653,69a2.246,2.246,0,0,0,2.039,2.288l26.657,3h.231a2.31,2.31,0,0,0,2.308-1.962L33.62,53.8A2.243,2.243,0,0,0,33.1,52.13ZM.154,50.053H29v3.462H.154Zm1.154-2.885H27.85A1.157,1.157,0,0,1,29,48.322V48.9H.154v-.577A1.157,1.157,0,0,1,1.308,47.168ZM.154,66.786V54.669H29V66.786A1.157,1.157,0,0,1,27.85,67.94H1.308A1.157,1.157,0,0,1,.154,66.786ZM32.466,53.573,30.735,72.094a1.164,1.164,0,0,1-1.269,1.039l-26.6-3a1.166,1.166,0,0,1-1.039-1.039H27.85a2.315,2.315,0,0,0,2.308-2.308v-14.6l1.327.115a.986.986,0,0,1,.75.4A1.168,1.168,0,0,1,32.466,53.573Z" transform="translate(1 -46.014)" fill="#3d7782"/>
      </g>
    </g>
  </g>
</svg>
