<svg xmlns="http://www.w3.org/2000/svg" width="25" height="25" viewBox="0 0 25 25">
  <g transform="translate(-25 -607)"><rect width="25" height="25" transform="translate(25 607)" opacity="0"/><path d="M15.473,18.512H15.04a0,0,0,0,1,0,0,6.632,6.632,0,0,0-5.667-7.733s0,0,0,0a6.632,6.632,0,0,0,5.667-7.733,0,0,0,0,1,0,0h.433a1.539,1.539,0,0,0,1.551-1.477A1.517,1.517,0,0,0,15.507,0H1.552A1.539,1.539,0,0,0,0,1.477,1.517,1.517,0,0,0,1.518,3.035h.468a0,0,0,0,1,0,0,6.632,6.632,0,0,0,5.667,7.733s0,0,0,0a6.632,6.632,0,0,0-5.667,7.733,0,0,0,0,1,0,0H1.552A1.539,1.539,0,0,0,0,19.99a1.517,1.517,0,0,0,1.517,1.557H15.507a1.517,1.517,0,0,0,1.517-1.558A1.54,1.54,0,0,0,15.473,18.512Z" transform="translate(28.717 609.227)" fill="#5CE3D9"/></g>
</svg>
