<svg xmlns="http://www.w3.org/2000/svg" width="60" height="60" viewBox="0 0 60 60">
  <g id="Group_2765" data-name="Group 2765" transform="translate(-218 -172)">
    <g id="Group_2764" data-name="Group 2764">
      <g id="Group_2762" data-name="Group 2762">
        <g id="Group_2763" data-name="Group 2763" transform="translate(60 -3)">
          <path id="Path_164" data-name="Path 164" d="M30,0A30,30,0,1,1,0,30,30,30,0,0,1,30,0Z" transform="translate(158 175)" fill="#5ce3d9"/>
        </g>
      </g>
      <g id="Group_2754" data-name="Group 2754" transform="translate(-251 -9369.648)">
        <path id="Path_140" data-name="Path 140" d="M89.441,28.394l-20.428.236V1.94h3.666a6.209,6.209,0,0,0,12.264,0h3.666l-.138,26.69a.97.97,0,0,0,1.94,0l.138-14.449,2.088,1.044a.97.97,0,0,0,1.226-.308l4.656-6.6a.97.97,0,0,0-.172-1.3L90.2.228A.966.966,0,0,0,89.579,0H68.043a.966.966,0,0,0-.625.229L59.274,7.015a.97.97,0,0,0-.172,1.3l4.656,6.6a.97.97,0,0,0,1.226.308l2.088-1.044V29.6a.97.97,0,0,0,.97.97l21.4-.236a.97.97,0,1,0,0-1.94Zm3.318-15.277-2.21-1.1V3.042l5.869,4.891ZM78.811,5.238a4.275,4.275,0,0,1-4.156-3.3h8.311A4.275,4.275,0,0,1,78.811,5.238ZM64.863,13.116,61.2,7.933l5.869-4.891v8.97Z" transform="translate(420.075 9557)" fill="#3d7782"/>
      </g>
    </g>
  </g>
</svg>
