<svg xmlns="http://www.w3.org/2000/svg" width="60" height="60" viewBox="0 0 60 60">
  <g id="Group_2766" data-name="Group 2766" transform="translate(-158 -168)">
    <circle id="Ellipse_29" data-name="Ellipse 29" cx="30" cy="30" r="30" transform="translate(158 168)" fill="#5ce3d9"/>
    <g id="_002-ruler" data-name="002-ruler" transform="translate(173.107 181.169)">
      <path id="Path_142" data-name="Path 142" d="M111.549,84.857c3.708,0,6.732-2.277,6.732-5.067s-3.015-5.067-6.732-5.067S104.816,77,104.816,79.79,107.841,84.857,111.549,84.857Zm0-8.335c2.7,0,4.932,1.494,4.932,3.267s-2.259,3.267-4.932,3.267-4.933-1.494-4.933-3.267,2.259-3.276,4.933-3.276Zm0,0" transform="translate(-96.203 -68.256)" fill="#3d7782"/>
      <path id="Path_143" data-name="Path 143" d="M43.887,20.895H30.6v-9.37C30.6,5.369,23.752.355,15.3.355S0,5.369,0,11.525V22.6c0,5.67,5.805,10.35,13.285,11.062h.153c.621.054,1.251.1,1.89.1H43.887a.9.9,0,0,0,.9-.9V21.794A.9.9,0,0,0,43.887,20.895ZM15.346,2.164c7.425,0,13.5,4.2,13.5,9.37S22.807,20.9,15.346,20.9s-13.5-4.2-13.5-9.37S7.929,2.164,15.346,2.164Zm13.5,14.617v4.113H23.626A13.572,13.572,0,0,0,28.8,16.781Zm14.14,15.175h-1.8V27.4a.9.9,0,1,0-1.8,0v4.563h-3.6V29.49a.9.9,0,1,0-1.8,0v2.475h-3.6V29.49a.9.9,0,1,0-1.8,0v2.475h-3.6V27.4a.9.9,0,1,0-1.8,0v4.563H19.738V29.49a.9.9,0,1,0-1.8,0v2.475h-3.6V29.49a.9.9,0,1,0-1.8,0v2.259c-6.075-.9-10.647-4.662-10.647-9.162V16.781c2.574,3.519,7.642,5.913,13.5,5.913h27.6Zm0,0" fill="#3d7782"/>
    </g>
  </g>
</svg>
