<svg xmlns="http://www.w3.org/2000/svg" width="25" height="25" viewBox="0 0 25 25">
  <g transform="translate(-25 -607)"><rect width="25" height="25" transform="translate(25 607)" opacity="0"/>
    <g transform="translate(26.073 610.871)"><path d="M22,7.55h-.528V5.2a1.881,1.881,0,0,0-1.881-1.881h-.646V1.455A1.455,1.455,0,0,0,17.485,0H1.455A1.455,1.455,0,0,0,0,1.455V16.731a1.881,1.881,0,0,0,1.881,1.881H19.587a1.881,1.881,0,0,0,1.881-1.881V14.377H22A1.277,1.277,0,0,0,23.273,13.1V8.827A1.277,1.277,0,0,0,22,7.55ZM1.969,1.969h15V3.316h-15ZM21.3,12.671H17.162a1.5,1.5,0,0,1-1.5-1.5V10.76a1.5,1.5,0,0,1,1.5-1.5H21.3Z" fill="#5CE3D9"/><circle cx="0.919" cy="0.919" r="0.919" transform="translate(16.642 10.044)"/></g>
  </g>
</svg>
